<svg xmlns="http://www.w3.org/2000/svg" width="87" height="99" viewBox="0 0 87 99">
    <g fill="none" fill-rule="evenodd">
        <g>
            <g>
                <path fill="#F5AF50" d="M42.825 76.474c-4.33 0-8.234 2.608-9.891 6.609-1.657 4-.741 8.605 2.32 11.667 3.063 3.062 7.667 3.978 11.668 2.321 4-1.657 6.609-5.56 6.609-9.891-.007-5.91-4.796-10.7-10.706-10.706z" transform="translate(-144 -198) translate(144.802 198.911)"/>
                <path fill="#F4A63D" d="M47.414 96.358c-4.798.007-9.014-3.18-10.315-7.799-1.3-4.618.632-9.538 4.728-12.036-4.395.408-8.088 3.472-9.302 7.716-1.213 4.244.302 8.797 3.817 11.467 3.514 2.67 8.307 2.91 12.07.603-.328.031-.661.049-.998.049z" transform="translate(-144 -198) translate(144.802 198.911)"/>
                <path fill="#F4DC50" fill-rule="nonzero" d="M35.178 7.647C35.178 3.424 38.602 0 42.825 0c4.223 0 7.647 3.424 7.647 7.647 0 4.223-3.424 7.647-7.647 7.647-4.223 0-7.646-3.424-7.647-7.647zm7.647 3.059c1.69 0 3.059-1.37 3.059-3.059 0-1.69-1.37-3.059-3.059-3.059-1.69 0-3.059 1.37-3.059 3.059 0 .811.322 1.59.896 2.163.574.574 1.352.896 2.163.896z" transform="translate(-144 -198) translate(144.802 198.911)"/>
                <path fill="#F4DC50" d="M80.109 75.057c-.036-.015-3.609-1.528-7.135-6.378-3.287-4.52-7.206-12.94-7.206-27.384 0-9.407-2.6-16.662-7.739-21.563-8.574-7.957-21.833-7.957-30.407 0-5.135 4.9-7.739 12.156-7.739 21.563 0 14.443-3.919 22.864-7.205 27.384-3.527 4.85-7.1 6.363-7.128 6.374-.68.273-1.071.99-.933 1.71.139.719.768 1.24 1.501 1.24h73.415c.73-.002 1.358-.52 1.498-1.236.14-.717-.246-1.433-.922-1.71z" transform="translate(-144 -198) translate(144.802 198.911)"/>
                <path fill="#F2D83D" d="M10.734 76.765c-.14-.72.253-1.437.934-1.709.028-.012 3.6-1.525 7.128-6.375 3.287-4.52 7.205-12.939 7.205-27.384 0-9.407 2.6-16.662 7.739-21.563 3.332-3.166 7.589-5.184 12.149-5.761-1.016-.137-2.04-.207-3.064-.208-5.645-.036-11.087 2.101-15.2 5.968-5.135 4.9-7.739 12.156-7.739 21.563 0 14.443-3.919 22.864-7.205 27.384-3.527 4.85-7.1 6.363-7.128 6.374-.68.273-1.071.99-.933 1.71.139.719.768 1.24 1.501 1.24h6.118c-.734.001-1.365-.518-1.505-1.239z" transform="translate(-144 -198) translate(144.802 198.911)"/>
                <path fill="#F6E477" d="M81.063 73.415H4.588C2.055 73.418.003 75.47 0 78.003v4.588c.003 2.533 2.055 4.585 4.588 4.588h76.475c2.533-.003 4.585-2.055 4.588-4.588v-4.588c-.003-2.533-2.055-4.585-4.588-4.588z" transform="translate(-144 -198) translate(144.802 198.911)"/>
                <path fill="#F4DC50" d="M7.647 82.592v-4.588c.002-2.534 2.055-4.587 4.589-4.589H4.588C2.055 73.418.003 75.47 0 78.003v4.588c.003 2.533 2.055 4.585 4.588 4.588h7.647c-2.532-.003-4.585-2.055-4.588-4.587z" transform="translate(-144 -198) translate(144.802 198.911)"/>
                <path fill="#4875E9" d="M64.238 13.765c-7.602 0-13.765 6.163-13.765 13.765s6.163 13.765 13.765 13.765 13.765-6.163 13.765-13.765c-.009-7.599-6.166-13.756-13.765-13.765z" transform="translate(-144 -198) translate(144.802 198.911)"/>
                <path fill="#1A1824" d="M68.827 38.237c-5.558.002-10.57-3.34-12.706-8.471-2.136-5.131-.975-11.043 2.943-14.985-5.178 2.097-8.574 7.116-8.596 12.702-.021 5.587 3.336 10.632 8.498 12.769 5.161 2.137 11.102.942 15.036-3.025-1.643.669-3.4 1.012-5.175 1.01z" opacity=".1" transform="translate(-144 -198) translate(144.802 198.911)"/>
                <path fill="#F4F5F7" d="M64.238 33.648c-.844 0-1.528-.685-1.529-1.529v-5.485l-.448.448c-.386.386-.95.537-1.477.396-.528-.142-.94-.554-1.082-1.082-.141-.527.01-1.09.396-1.477l3.059-3.059c.437-.438 1.095-.57 1.667-.332.572.236.944.794.944 1.413v9.173c.001.406-.16.797-.447 1.084-.287.288-.677.45-1.083.45z" transform="translate(-144 -198) translate(144.802 198.911)"/>
            </g>
        </g>
    </g>
</svg>
