<svg xmlns="http://www.w3.org/2000/svg" width="409" height="231" viewBox="0 0 409 231">
    <g fill="none" fill-rule="evenodd" opacity=".6">
        <g>
            <g>
                <path fill="#F0F5F8" d="M371.11 169.636c3.486-.678 5.63 1.119 7.368 3.863 9.03 14.259 18.108 28.49 27.158 42.736 2.07 3.259 2.19 6.628-.221 9.664-2.463 3.1-5.513 4.262-9.683 2.849-12.867-4.361-25.854-8.362-38.766-12.595-7.766-2.546-9.835-7.211-6.523-14.427 4.149-9.04 8.337-18.06 12.533-27.078 1.6-3.437 3.92-5.798 8.134-5.012" transform="translate(20 23) translate(-19.544 -22.976)"/>
                <path fill="#E7EDF1" d="M195.434 94.858c-7.313.053-11.148-6.104-7.478-11.344 7.501-10.707 15.356-21.183 23.436-31.463 3.561-4.529 8.302-4.426 12.546-.482 6.568 6.103 13.138 12.213 19.512 18.516 5.847 5.783 3.964 11.836-4.11 13.855-13.656 3.413-27.31 6.825-40.969 10.232-1.276.319-2.56.599-2.937.686" transform="translate(20 23) translate(-19.544 -22.976)"/>
                <path fill="#F0F5F8" d="M380.479 113.728c.02 4.392-4.562 9.18-10.028 10.758-1.745.504-3.553.784-5.326 1.192-3.813.879-5.939 3.215-6.632 7.125-1.926 10.858-7.645 16.855-18.506 18.619-4.894.794-6.733 3.499-7.474 7.827-.804 4.684-2.553 8.912-6.281 12.11-3.036 2.604-6.317 3.116-9.528.624-3.38-2.621-3.893-6.421-1.706-9.742 2.077-3.156 2.924-6.462 3.952-9.964 2.586-8.82 9.282-13.7 17.935-15.395 4.109-.805 6.432-2.615 7.128-6.362 2.187-11.761 9.091-18.404 20.942-19.918 1.829-.234 2.693-1.855 4.098-2.698 2.498-1.498 5.022-1.754 7.527-.162 2.306 1.467 4.398 3.148 3.899 5.986M375.86 42.186c.497 13.696-10.012 19.574-20.015 20.124-9.905.544-20.07-10.167-19.561-20.013.647-12.563 9.699-20.144 20.42-19.798 11.358.367 19.16 8.081 19.157 19.687" transform="translate(20 23) translate(-19.544 -22.976)"/>
                <path fill="#E7EDF1" d="M277.913 95.119c.008-9.017 5.25-14.356 14.063-14.323 7.382.029 14.039 6.672 13.876 14.05-.148 6.75-6.04 14.377-14.423 13.99-8.136-.374-13.523-5.495-13.516-13.717" transform="translate(20 23) translate(-19.544 -22.976)"/>
                <path fill="#F0F5F8" d="M143.424 1.152c3.486-.678 5.63 1.119 7.368 3.863 9.03 14.259 18.108 28.49 27.158 42.736 2.07 3.259 2.19 6.628-.221 9.664-2.463 3.1-5.513 4.262-9.683 2.849-12.867-4.361-25.854-8.362-38.766-12.595-7.766-2.546-9.835-7.211-6.523-14.427 4.149-9.04 8.337-18.06 12.533-27.078 1.6-3.437 3.92-5.798 8.134-5.012" transform="translate(20 23) translate(-19.544 -22.976) rotate(-88 150.378 30.93)"/>
                <path fill="#E7EDF1" d="M2.89 213.854c-7.313.053-11.148-6.104-7.478-11.344 7.5-10.707 15.356-21.183 23.436-31.463 3.56-4.53 8.302-4.426 12.546-.482 6.568 6.103 13.138 12.213 19.512 18.516 5.847 5.783 3.964 11.836-4.11 13.855-13.656 3.413-27.311 6.825-40.97 10.232-1.275.319-2.56.599-2.936.686" transform="translate(20 23) translate(-19.544 -22.976) rotate(-88 24.155 190.74)"/>
                <path fill="#F0F5F8" d="M141.415 44.385c.02 4.392-4.562 9.181-10.028 10.758-1.745.504-3.553.784-5.326 1.192-3.813.88-5.94 3.215-6.632 7.125-1.926 10.858-7.645 16.855-18.506 18.62-4.894.793-6.733 3.498-7.474 7.826-.804 4.684-2.553 8.912-6.281 12.11-3.036 2.604-6.317 3.116-9.528.624-3.38-2.62-3.893-6.42-1.706-9.742 2.077-3.156 2.924-6.462 3.952-9.964 2.586-8.819 9.282-13.7 17.935-15.395 4.109-.805 6.432-2.615 7.128-6.362 2.187-11.76 9.09-18.404 20.942-19.918 1.829-.234 2.693-1.855 4.098-2.698 2.498-1.498 5.022-1.754 7.527-.162 2.306 1.467 4.398 3.148 3.899 5.986" transform="translate(20 23) translate(-19.544 -22.976) rotate(-88 108.053 70.79)"/>
                <path fill="#E7EDF1" d="M35.873 116.704c.008-9.017 5.25-14.356 14.063-14.324 7.382.03 14.039 6.672 13.876 14.05-.148 6.751-6.04 14.377-14.423 13.992-8.136-.375-13.523-5.496-13.516-13.718" transform="translate(20 23) translate(-19.544 -22.976) rotate(-88 49.844 116.408)"/>
            </g>
        </g>
    </g>
</svg>
