<svg xmlns="http://www.w3.org/2000/svg" xmlns:xlink="http://www.w3.org/1999/xlink" width="251" height="250" viewBox="0 0 251 250">
    <defs>
        <ellipse id="2nvir22b8a" cx="-2.394" cy="47.033" rx="43.61" ry="43.645"/>
        <ellipse id="wc4lvhb89b" cx="95.854" cy="152.382" rx="43.61" ry="43.645"/>
        <ellipse id="qcjpdm8m8c" cx="201.119" cy="93.186" rx="43.61" ry="43.645"/>
        <path id="89dxplqcje" d="M195.926 8.676c-19.296 18.023-44.706 28.046-71.1 28.046-26.393 0-51.803-10.023-71.099-28.046C33.507-10.217.533 3.729 0 31.41v1.706c-.399 69.45 56.745 126.418 126.13 125.676 32.88-.346 64.298-13.661 87.427-37.053 23.13-23.392 36.104-54.972 36.104-87.881 0-.993-.01-1.997-.03-2.99-.652-27.42-33.675-40.905-53.705-22.193z"/>
        <path id="dl6vxh9erk" d="M203.434 85.052c-5.12-15.217-12.165-29.716-20.963-43.143-5.734-8.74-11.358-18.06-20.05-23.85C144.813 6.353 124.16.074 103.02 0c-3.098 0-6.196.15-9.273.421-2.908.261-5.805.643-8.672 1.144-2.697.472-5.384 1.004-8.02 1.726-2.48.635-4.933 1.358-7.359 2.167-2.246.743-4.465 1.562-6.657 2.458-2.005.816-3.976 1.69-5.915 2.619-1.734.823-3.448 1.706-5.143 2.619-1.463.802-2.914 1.635-4.35 2.498-1.053.642-1.675 1.003-2.477 1.555-.32.22-1.203.843-2.276 1.756-.616.506-1.205 1.046-1.764 1.615-.63.668-1.226 1.368-1.784 2.097-1.123 1.314-2.226 2.629-3.339 3.943-1.337 1.559-2.647 3.124-3.93 4.696-1.283 1.572-2.656 3.194-4.12 4.866-1.283 1.565-2.557 3.14-3.82 4.726-1.002 1.324-2.095 2.648-3.108 4.013-.38.501-.751 1.003-1.112 1.515-8.43 12.02-15.11 25.178-19.84 39.08-.068.173-.08.364-.036.545.044.182.143.345.283.469.14.123.314.2.499.222.185.022.373-.014.537-.103 4.932-2.9 17.534-8.86 25.133.863l31.289 4.856.471 33.611c8.852 4.315 26.216 6.321 49.284 6.15 22.166-.16 39.169-1.093 47.951-5.367V99.79l4.993-12.28 12.922-2.579c11.339-6.42 16.973-5.89 20.05-4.013 2.617 1.615 6.126 5.95 8.993 4.826.822-.074 1.157-.304 1.003-.692z"/>
        <path id="qxdymb99pm" d="M136.119 33.7c.13-.029.254-.083.363-.16.11-.077.203-.175.275-.288.071-.113.12-.238.143-.37.023-.132.02-.267-.01-.398-.028-.13-.083-.254-.16-.363-.076-.11-.174-.203-.287-.275-.113-.071-.238-.12-.37-.143-.19-.07-4.862-1.746-8.732-.692-.132.035-.255.096-.363.18-.108.083-.199.187-.267.305-.137.239-.174.523-.102.789s.246.493.485.63.522.174.788.102c3.248-.873 7.439.632 7.48.642.116.036.238.053.36.05.132.024.267.02.397-.009z"/>
        <mask id="sx09sagy5g" width="87.22" height="87.289" x="0" y="0" fill="#fff" maskContentUnits="userSpaceOnUse" maskUnits="objectBoundingBox">
            <use xlink:href="#2nvir22b8a"/>
        </mask>
        <mask id="k28r5kd6oh" width="87.22" height="87.289" x="0" y="0" fill="#fff" maskContentUnits="userSpaceOnUse" maskUnits="objectBoundingBox">
            <use xlink:href="#wc4lvhb89b"/>
        </mask>
        <mask id="7f7yaq5dhi" width="87.22" height="87.289" x="0" y="0" fill="#fff" maskContentUnits="userSpaceOnUse" maskUnits="objectBoundingBox">
            <use xlink:href="#qcjpdm8m8c"/>
        </mask>
        <linearGradient id="k2o3wqipvd" x1="50%" x2="50%" y1="0%" y2="100%">
            <stop offset="0%" stop-color="#5FCEA3"/>
            <stop offset="100%" stop-color="#B0FBAB"/>
        </linearGradient>
        <linearGradient id="0zfucnupej" x1="50%" x2="50%" y1="0%" y2="100%">
            <stop offset="0%" stop-color="#FF7E5C"/>
            <stop offset="100%" stop-color="#FF5B30"/>
        </linearGradient>
    </defs>
    <g fill="none" fill-rule="evenodd">
        <g>
            <g transform="translate(-62 -115) translate(62 115)">
                <circle cx="125" cy="125" r="125" fill="#F8F8F8"/>
                <g>
                    <g transform="translate(0 28)">
                        <path fill="url(#k2o3wqipvd)" fill-rule="nonzero" d="M196.265 70.872c-19.296 18.024-44.706 28.047-71.1 28.047-26.393 0-51.803-10.023-71.099-28.047C33.846 51.98.872 65.926.34 93.608v1.705c-.399 69.45 56.745 126.42 126.13 125.677 32.88-.346 64.297-13.661 87.427-37.053C237.026 160.545 250 128.965 250 96.056c0-.993-.01-1.997-.03-2.99-.652-27.42-33.675-40.906-53.705-22.194z"/>
                        <g transform="translate(.339 62.197)">
                            <mask id="e73p98r4tf" fill="#fff">
                                <use xlink:href="#89dxplqcje"/>
                            </mask>
                            <use fill="#EAEAEA" fill-rule="nonzero" xlink:href="#89dxplqcje"/>
                            <g stroke="#FFF" stroke-dasharray="0 0" stroke-width="8" mask="url(#e73p98r4tf)">
                                <use mask="url(#sx09sagy5g)" xlink:href="#2nvir22b8a"/>
                            </g>
                            <g stroke="#FFF" stroke-dasharray="0 0" stroke-width="8" mask="url(#e73p98r4tf)">
                                <use mask="url(#k28r5kd6oh)" xlink:href="#wc4lvhb89b"/>
                            </g>
                            <g stroke="#FFF" stroke-dasharray="0 0" stroke-width="8" mask="url(#e73p98r4tf)">
                                <use mask="url(#7f7yaq5dhi)" xlink:href="#qcjpdm8m8c"/>
                            </g>
                        </g>
                        <path fill="#255D6A" fill-rule="nonzero" d="M173.467 177.737c-.42-3.522-5.103-4.957-5.153-5.248-13.934 4.953-28.445 8.095-43.179 9.351-14.733-1.256-29.244-4.398-43.178-9.35 0 .24-5.274 1.324-5.554 4.735-.281 3.411.47 8.619.25 14.227-.22 5.609-.45 12.23-.671 19.364 15.766 6.833 32.784 10.298 49.965 10.174l.271-2.9c.07 1.004.13 1.937.21 2.91 16.715-.157 33.227-3.678 48.553-10.354-.34-6.833-.712-13.054-1.093-18.411-.39-6.02 0-10.977-.42-14.498z"/>
                        <path fill="#383838" fill-rule="nonzero" d="M156.925 201.264c-8.02 2.72-16.651 3.602-32.18 1.796-16.448-1.952-32.603-5.866-48.122-11.658l97.265.833c-5.125 3.913-10.855 6.963-16.963 9.03z" opacity=".2"/>
                        <path fill="url(#0zfucnupej)" fill-rule="nonzero" d="M221.869 150.577c-5.12-15.217-12.165-29.716-20.963-43.143-5.734-8.74-11.358-18.06-20.05-23.85-17.608-11.707-38.26-17.986-59.4-18.06-3.098 0-6.196.151-9.273.422-2.908.261-5.805.642-8.672 1.144-2.697.472-5.384 1.003-8.02 1.726-2.48.635-4.933 1.358-7.359 2.167-2.245.742-4.464 1.562-6.657 2.458-2.005.816-3.976 1.689-5.915 2.619-1.734.822-3.448 1.705-5.142 2.618-1.464.803-2.914 1.636-4.351 2.499-1.053.642-1.675 1.003-2.477 1.555-.32.22-1.203.843-2.275 1.756-.617.506-1.206 1.045-1.765 1.615-.63.668-1.226 1.368-1.784 2.097-1.123 1.314-2.226 2.629-3.339 3.943-1.336 1.558-2.646 3.124-3.93 4.696-1.283 1.571-2.656 3.193-4.12 4.866-1.283 1.565-2.556 3.14-3.82 4.725-1.002 1.325-2.095 2.65-3.107 4.014-.381.501-.752 1.003-1.113 1.515-8.43 12.02-15.11 25.178-19.84 39.08-.068.173-.08.364-.036.545.044.181.143.345.283.468.14.124.314.202.5.223.184.021.372-.015.536-.103 4.932-2.9 17.534-8.86 25.133.863l31.29 4.856.47 33.611c8.853 4.314 26.216 6.321 49.284 6.15 22.166-.16 39.17-1.093 47.951-5.367v-26.97l4.993-12.28 12.922-2.579c11.339-6.421 16.973-5.89 20.05-4.013 2.617 1.615 6.126 5.95 8.994 4.826.822-.074 1.156-.304 1.002-.692z"/>
                        <g transform="translate(18.435 65.525)">
                            <mask id="xmhmppf1al" fill="#fff">
                                <use xlink:href="#dl6vxh9erk"/>
                            </mask>
                            <use fill="#4875E9" fill-rule="nonzero" xlink:href="#dl6vxh9erk"/>
                            <g stroke="#FFF" stroke-dasharray="0 0" stroke-width=".4" mask="url(#xmhmppf1al)">
                                <g>
                                    <path d="M217.548 21.07l-8.052-14.448c-1.075-1.93-3.512-2.622-5.441-1.547-.704.393-1.273.988-1.633 1.71l-3.74 7.5c-.986 1.977-3.388 2.78-5.365 1.795-.72-.36-1.317-.928-1.709-1.632l-4.73-8.488c-1.076-1.93-3.512-2.623-5.442-1.547-.597.333-1.1.814-1.458 1.396l-5.28 8.57c-1.158 1.882-3.622 2.467-5.503 1.309-.72-.444-1.281-1.104-1.602-1.887l-2.683-6.533c-.84-2.043-3.176-3.02-5.22-2.18-.782.321-1.443.882-1.886 1.602l-4.976 8.078c-1.158 1.88-3.622 2.466-5.503 1.308-.663-.409-1.193-1.002-1.524-1.707l-3.599-7.668c-.938-2-3.32-2.86-5.32-1.922-.705.33-1.298.86-1.706 1.523l-5.1 8.278c-1.158 1.881-3.622 2.467-5.503 1.308-.691-.426-1.237-1.052-1.564-1.795l-3.131-7.117c-.89-2.022-3.25-2.94-5.272-2.05-.743.327-1.37.872-1.795 1.563l-5.1 8.279c-1.158 1.88-3.622 2.466-5.503 1.308-.663-.409-1.192-1.002-1.523-1.707l-3.75-7.988c-.938-2-3.32-2.86-5.32-1.922-.653.307-1.212.786-1.616 1.384l-6.216 9.214c-1.236 1.832-3.722 2.315-5.553 1.08-.627-.423-1.12-1.014-1.425-1.706L73.13 6.078c-.89-2.022-3.25-2.94-5.272-2.05-.597.262-1.12.667-1.525 1.178L57.578 16.26c-1.372 1.732-3.888 2.024-5.62.652-.435-.345-.794-.777-1.053-1.268l-5.277-9.994c-1.031-1.953-3.451-2.7-5.405-1.67-.535.283-1 .684-1.358 1.172l-8.38 11.428c-1.306 1.781-3.81 2.166-5.59.86-.35-.257-.656-.568-.906-.923L15.937 5.08c-1.271-1.807-3.766-2.24-5.573-.968-.467.328-.858.754-1.147 1.246L0 21.07h0M217.548 41.136l-8.052-14.447c-1.075-1.93-3.512-2.623-5.441-1.547-.704.392-1.273.988-1.633 1.709l-3.74 7.501c-.986 1.977-3.388 2.78-5.365 1.795-.72-.36-1.317-.929-1.709-1.633l-4.73-8.488c-1.076-1.93-3.512-2.622-5.442-1.547-.597.333-1.1.814-1.458 1.397l-5.28 8.57c-1.158 1.881-3.622 2.467-5.503 1.308-.72-.444-1.281-1.104-1.602-1.886l-2.683-6.533c-.84-2.044-3.176-3.02-5.22-2.18-.782.32-1.443.882-1.886 1.602l-4.976 8.077c-1.158 1.881-3.622 2.467-5.503 1.308-.663-.408-1.193-1.001-1.524-1.706l-3.599-7.669c-.938-2-3.32-2.86-5.32-1.922-.705.331-1.298.86-1.706 1.524l-5.1 8.278c-1.158 1.88-3.622 2.466-5.503 1.308-.691-.426-1.237-1.052-1.564-1.795l-3.131-7.117c-.89-2.022-3.25-2.94-5.272-2.05-.743.326-1.37.872-1.795 1.563l-5.1 8.278c-1.158 1.881-3.622 2.467-5.503 1.308-.663-.408-1.192-1.001-1.523-1.706l-3.75-7.989c-.938-2-3.32-2.86-5.32-1.921-.653.307-1.212.785-1.616 1.384l-6.216 9.214c-1.236 1.831-3.722 2.314-5.553 1.079-.627-.423-1.12-1.014-1.425-1.705l-3.675-8.353c-.89-2.023-3.25-2.94-5.272-2.05-.597.262-1.12.666-1.525 1.177l-8.755 11.055c-1.372 1.732-3.888 2.024-5.62.653-.435-.345-.794-.777-1.053-1.269l-5.277-9.993c-1.031-1.954-3.451-2.701-5.405-1.67-.535.283-1 .684-1.358 1.172l-8.38 11.427c-1.306 1.782-3.81 2.167-5.59.86-.35-.256-.656-.568-.906-.923l-8.052-11.437c-1.271-1.806-3.766-2.24-5.573-.968-.467.329-.858.754-1.147 1.247L0 41.136h0M217.548 61.203l-8.052-14.448c-1.075-1.93-3.512-2.622-5.441-1.547-.704.393-1.273.988-1.633 1.71l-3.74 7.5c-.986 1.977-3.388 2.78-5.365 1.795-.72-.36-1.317-.928-1.709-1.632l-4.73-8.488c-1.076-1.93-3.512-2.623-5.442-1.547-.597.333-1.1.814-1.458 1.396l-5.28 8.57c-1.158 1.882-3.622 2.467-5.503 1.308-.72-.443-1.281-1.103-1.602-1.886l-2.683-6.533c-.84-2.043-3.176-3.02-5.22-2.18-.782.321-1.443.882-1.886 1.602l-4.976 8.078c-1.158 1.88-3.622 2.466-5.503 1.307-.663-.408-1.193-1-1.524-1.706l-3.599-7.668c-.938-2-3.32-2.86-5.32-1.922-.705.33-1.298.86-1.706 1.523l-5.1 8.278c-1.158 1.881-3.622 2.467-5.503 1.308-.691-.426-1.237-1.052-1.564-1.795l-3.131-7.117c-.89-2.022-3.25-2.94-5.272-2.05-.743.327-1.37.872-1.795 1.563l-5.1 8.279c-1.158 1.88-3.622 2.466-5.503 1.307-.663-.408-1.192-1-1.523-1.706l-3.75-7.988c-.938-2-3.32-2.86-5.32-1.922-.653.307-1.212.785-1.616 1.384l-6.216 9.214c-1.236 1.832-3.722 2.315-5.553 1.08-.627-.423-1.12-1.014-1.425-1.706l-3.675-8.353c-.89-2.022-3.25-2.94-5.272-2.05-.597.262-1.12.667-1.525 1.177l-8.755 11.056c-1.372 1.732-3.888 2.024-5.62.652-.435-.345-.794-.777-1.053-1.268l-5.277-9.994c-1.031-1.953-3.451-2.7-5.405-1.67-.535.283-1 .684-1.358 1.172l-8.38 11.428c-1.306 1.781-3.81 2.166-5.59.86-.35-.257-.656-.568-.906-.923l-8.052-11.437c-1.271-1.807-3.766-2.24-5.573-.968-.467.328-.858.754-1.147 1.246L0 61.202h0M217.548 81.27l-8.052-14.449c-1.075-1.93-3.512-2.622-5.441-1.546-.704.392-1.273.988-1.633 1.709l-3.74 7.5c-.986 1.978-3.388 2.781-5.365 1.796-.72-.36-1.317-.929-1.709-1.633l-4.73-8.488c-1.076-1.93-3.512-2.622-5.442-1.547-.597.333-1.1.814-1.458 1.396l-5.28 8.571c-1.158 1.881-3.622 2.467-5.503 1.308-.72-.444-1.281-1.104-1.602-1.886l-2.683-6.533c-.84-2.044-3.176-3.02-5.22-2.18-.782.32-1.443.881-1.886 1.602l-4.976 8.077c-1.158 1.881-3.622 2.467-5.503 1.308-.663-.408-1.193-1.001-1.524-1.706l-3.599-7.669c-.938-2-3.32-2.86-5.32-1.922-.705.331-1.298.86-1.706 1.524l-5.1 8.278c-1.158 1.88-3.622 2.466-5.503 1.308-.691-.426-1.237-1.052-1.564-1.795l-3.131-7.117c-.89-2.022-3.25-2.94-5.272-2.05-.743.326-1.37.872-1.795 1.563l-5.1 8.278c-1.158 1.881-3.622 2.467-5.503 1.308-.663-.408-1.192-1.001-1.523-1.706l-3.75-7.989c-.938-2-3.32-2.86-5.32-1.921-.653.307-1.212.785-1.616 1.384l-6.216 9.214c-1.236 1.831-3.722 2.314-5.553 1.079-.627-.423-1.12-1.014-1.425-1.705l-3.675-8.354c-.89-2.022-3.25-2.94-5.272-2.05-.597.263-1.12.667-1.525 1.178L57.578 76.46c-1.372 1.732-3.888 2.024-5.62.652-.435-.344-.794-.776-1.053-1.268l-5.277-9.993c-1.031-1.954-3.451-2.701-5.405-1.67-.535.283-1 .683-1.358 1.172l-8.38 11.427c-1.306 1.782-3.81 2.167-5.59.86-.35-.256-.656-.568-.906-.923L15.937 65.28c-1.271-1.806-3.766-2.24-5.573-.968-.467.329-.858.754-1.147 1.247L0 81.269h0M217.548 101.336l-8.052-14.448c-1.075-1.93-3.512-2.622-5.441-1.547-.704.392-1.273.988-1.633 1.71l-3.74 7.5c-.986 1.977-3.388 2.78-5.365 1.795-.72-.36-1.317-.928-1.709-1.632l-4.73-8.488c-1.076-1.93-3.512-2.623-5.442-1.547-.597.333-1.1.814-1.458 1.396l-5.28 8.57c-1.158 1.882-3.622 2.467-5.503 1.308-.72-.443-1.281-1.103-1.602-1.886l-2.683-6.533c-.84-2.043-3.176-3.02-5.22-2.18-.782.321-1.443.882-1.886 1.602l-4.976 8.078c-1.158 1.88-3.622 2.466-5.503 1.307-.663-.408-1.193-1.001-1.524-1.706l-3.599-7.669c-.938-2-3.32-2.86-5.32-1.921-.705.33-1.298.86-1.706 1.523l-5.1 8.278c-1.158 1.881-3.622 2.467-5.503 1.308-.691-.426-1.237-1.052-1.564-1.795l-3.131-7.117c-.89-2.022-3.25-2.94-5.272-2.05-.743.327-1.37.872-1.795 1.563l-5.1 8.279c-1.158 1.88-3.622 2.466-5.503 1.307-.663-.408-1.192-1.001-1.523-1.706l-3.75-7.988c-.938-2-3.32-2.86-5.32-1.922-.653.307-1.212.785-1.616 1.384l-6.216 9.214c-1.236 1.832-3.722 2.315-5.553 1.08-.627-.423-1.12-1.014-1.425-1.706l-3.675-8.353c-.89-2.022-3.25-2.94-5.272-2.05-.597.262-1.12.666-1.525 1.177l-8.755 11.056c-1.372 1.731-3.888 2.024-5.62.652-.435-.345-.794-.777-1.053-1.268l-5.277-9.994c-1.031-1.953-3.451-2.7-5.405-1.67-.535.283-1 .684-1.358 1.172l-8.38 11.428c-1.306 1.781-3.81 2.166-5.59.86-.35-.257-.656-.568-.906-.923l-8.052-11.437c-1.271-1.807-3.766-2.24-5.573-.968-.467.328-.858.754-1.147 1.246L0 101.335h0M217.548 121.402l-8.052-14.448c-1.075-1.93-3.512-2.622-5.441-1.546-.704.392-1.273.988-1.633 1.709l-3.74 7.5c-.986 1.978-3.388 2.781-5.365 1.796-.72-.36-1.317-.929-1.709-1.633l-4.73-8.488c-1.076-1.93-3.512-2.622-5.442-1.547-.597.333-1.1.814-1.458 1.396l-5.28 8.571c-1.158 1.881-3.622 2.467-5.503 1.308-.72-.444-1.281-1.104-1.602-1.886l-2.683-6.533c-.84-2.044-3.176-3.02-5.22-2.18-.782.32-1.443.881-1.886 1.601l-4.976 8.078c-1.158 1.881-3.622 2.467-5.503 1.308-.663-.408-1.193-1.001-1.524-1.706l-3.599-7.669c-.938-2-3.32-2.86-5.32-1.922-.705.331-1.298.86-1.706 1.524l-5.1 8.278c-1.158 1.88-3.622 2.466-5.503 1.308-.691-.426-1.237-1.052-1.564-1.795l-3.131-7.117c-.89-2.022-3.25-2.94-5.272-2.05-.743.326-1.37.872-1.795 1.563l-5.1 8.278c-1.158 1.881-3.622 2.467-5.503 1.308-.663-.408-1.192-1.001-1.523-1.706l-3.75-7.989c-.938-2-3.32-2.86-5.32-1.921-.653.307-1.212.785-1.616 1.384l-6.216 9.214c-1.236 1.831-3.722 2.314-5.553 1.079-.627-.423-1.12-1.014-1.425-1.705l-3.675-8.354c-.89-2.022-3.25-2.94-5.272-2.05-.597.263-1.12.667-1.525 1.178l-8.755 11.055c-1.372 1.732-3.888 2.024-5.62.652-.435-.344-.794-.776-1.053-1.268l-5.277-9.993c-1.031-1.954-3.451-2.701-5.405-1.67-.535.283-1 .683-1.358 1.172l-8.38 11.427c-1.306 1.782-3.81 2.167-5.59.86-.35-.256-.656-.568-.906-.923l-8.052-11.437c-1.271-1.806-3.766-2.24-5.573-.968-.467.329-.858.754-1.147 1.247L0 121.402h0M217.548 141.469l-8.052-14.448c-1.075-1.93-3.512-2.622-5.441-1.547-.704.392-1.273.988-1.633 1.71l-3.74 7.5c-.986 1.977-3.388 2.78-5.365 1.795-.72-.36-1.317-.929-1.709-1.632l-4.73-8.488c-1.076-1.93-3.512-2.623-5.442-1.547-.597.333-1.1.813-1.458 1.396l-5.28 8.57c-1.158 1.881-3.622 2.467-5.503 1.308-.72-.443-1.281-1.103-1.602-1.886l-2.683-6.533c-.84-2.043-3.176-3.02-5.22-2.18-.782.321-1.443.882-1.886 1.602l-4.976 8.078c-1.158 1.88-3.622 2.466-5.503 1.307-.663-.408-1.193-1.001-1.524-1.706l-3.599-7.669c-.938-2-3.32-2.86-5.32-1.921-.705.33-1.298.86-1.706 1.523l-5.1 8.278c-1.158 1.881-3.622 2.467-5.503 1.308-.691-.426-1.237-1.052-1.564-1.795l-3.131-7.117c-.89-2.022-3.25-2.94-5.272-2.05-.743.327-1.37.872-1.795 1.563l-5.1 8.279c-1.158 1.88-3.622 2.466-5.503 1.307-.663-.408-1.192-1.001-1.523-1.706l-3.75-7.988c-.938-2-3.32-2.86-5.32-1.922-.653.307-1.212.785-1.616 1.384l-6.216 9.214c-1.236 1.832-3.722 2.315-5.553 1.08-.627-.423-1.12-1.015-1.425-1.706l-3.675-8.353c-.89-2.022-3.25-2.94-5.272-2.05-.597.262-1.12.666-1.525 1.177l-8.755 11.056c-1.372 1.731-3.888 2.023-5.62.652-.435-.345-.794-.777-1.053-1.268l-5.277-9.994c-1.031-1.953-3.451-2.701-5.405-1.67-.535.283-1 .684-1.358 1.172l-8.38 11.428c-1.306 1.781-3.81 2.166-5.59.86-.35-.257-.656-.569-.906-.923l-8.052-11.437c-1.271-1.807-3.766-2.24-5.573-.969-.467.33-.858.754-1.147 1.247L0 141.468h0" transform="translate(-2.946 -2.95)"/>
                                </g>
                            </g>
                        </g>
                        <path fill="#2D5BCF" fill-rule="nonzero" d="M221.167 148.5c-.27-.743-.541-1.485-.742-2.057-4.68-3.327-10.428-4.8-16.13-4.134-5.915.723-11.427 3.378-15.68 7.555l.742 1.094 2.446-.492c11.339-6.421 16.973-5.89 20.05-4.013 2.006 1.204 6.858 5.398 9.024 4.826.211-.034.413-.115.59-.237.176-.121.324-.28.432-.465.2-.512-.34-1.004-.732-2.077zM18.988 149.463c-.19.562-.371 1.074-.511 1.525-.068.174-.08.365-.036.546.044.181.143.345.283.468.14.124.314.202.499.223.185.021.373-.015.537-.103 4.932-2.9 17.534-8.86 25.133.863l3.57.552c-.492-.663-1.013-1.325-1.555-2.067-8.772-11.89-21.243-6.331-27.92-2.007zM121.446 65.465c-3.098 0-6.196.15-9.273.421-2.908.26-5.805.642-8.672 1.144 0 .01 15.97 29.568 38.356.441-6.722-1.332-13.558-2.004-20.41-2.006z"/>
                        <path fill="#3A65D5" fill-rule="nonzero" d="M178.9 153.035l2.467-.492-38.557-7.254c1.063-3.531-2.376-5.267-4.01-5.89l1.093-13.835c.3-3.813-1.835-7.023-4.803-7.023h-5.664c-3.108-3.793-13.684-13.987-32.281-.783-17.183 12.22-38.818 28.886-47.9 35.95l26.957 4.183.13 9.351c19.048-14.618 30.387-23.809 36.723-29.096l.25 3.01c-.801.602-1.403 2.006-1.513 4.193-.07.707.104 1.417.493 2.012.388.594.967 1.039 1.642 1.26l.19 2.297c-.45.592-.664 1.329-.603 2.07.06.741.394 1.433.934 1.943l.462 5.629c.06.724.292 1.424.68 2.039.387.614.918 1.127 1.545 1.493-.16.441-.22.913-.175 1.38.043.468.19.92.428 1.324.239.405.563.751.951 1.016.388.264.83.44 1.292.514.796.2 1.55.54 2.226 1.003 6.206 2.287 9.314 3.431 11.228 3.933 2.61.702 5.258 1.254 7.93 1.655h1.795c9.744 1.853 20.12 3.616 31.128 5.288l-.05-14.89 5.013-12.28z"/>
                        <path fill="#3A65D5" d="M66.077 148.72c-.035.101-.035.21 0 .312l10.456 13.976v-42.24c.01-.112-.02-.223-.087-.314-.065-.09-.162-.154-.271-.178-.11-.025-.224-.009-.322.045s-.174.141-.212.246l-9.564 28.153zm108.363-28.153c-.033-.107-.103-.199-.198-.258-.096-.06-.21-.082-.32-.063-.11.018-.21.076-.281.163-.07.087-.108.197-.104.309v53.617c.005.107.045.209.114.29.07.08.165.135.27.155.104.02.213.003.307-.046.094-.05.169-.13.212-.228l9.473-25.474c.052-.095.07-.205.05-.312h.04l-9.563-28.153z"/>
                        <path fill="#D4B28E" fill-rule="nonzero" d="M132.985 51.388l-21.624 1.003.39 13.465c-1.774.15-3.548.341-5.313.582 2.868 4.013 8.582 10.455 15.73 9.853 8.24-.683 12.461-4.154 15.93-9.662-1.664-.201-3.378-.402-5.113-.572V51.388z"/>
                        <path fill="#8B633C" fill-rule="nonzero" d="M112.223 52.21l.24 8.027c1.003 1.746 7.329 10.907 20.683 3.492v-11.95l-4-.38-16.923.812z"/>
                        <path fill="#383838" fill-rule="nonzero" d="M128.905 57.98c-1.953 1.039-4.1 1.66-6.306 1.826-2.167-.185-4.275-.806-6.196-1.826-1.506-.798-2.887-1.812-4.1-3.01l20.843-.17c-1.247 1.266-2.676 2.339-4.241 3.18z" opacity=".2"/>
                        <path fill="#D4B28E" fill-rule="nonzero" d="M147.1 33.117c-1.182-2.478-2.235-3.26-3.117-3.21-1.123.067-2.029 1.137-2.717 3.21l.862-5.668v-5.85c0-.542-1.624-3.016-4.872-7.424l-6.236-3.361c-5.694-.67-8.835-.893-9.424-.673-.588.221-3.649.388-9.183.502l-8.37 2.86-1.705 4.364 1.664 14.9c0 .06-.06.08-.08 0-.32-.803-1.253-2.81-2.597-2.89-.882-.05-1.935.732-3.117 3.21-.489 1.011-.768 2.11-.823 3.231-.027.775.061 1.549.261 2.298.101.34.222.676.361 1.003.266.66.602 1.288 1.003 1.876.28.415.588.81.922 1.184.21.25.43.472.641.682.211.211.422.412.622.592l.29.261c.477.417.983.8 1.515 1.144 1.296 5.146 4.087 9.793 8.02 13.354.35.311.772.692 1.273 1.114 1.238 1.057 2.618 1.935 4.1 2.609 1.957.882 4.055 1.412 6.196 1.565 2.179-.14 4.315-.67 6.306-1.565 1.536-.7 2.964-1.615 4.24-2.72.442-.37.813-.722 1.133-1.003 3.933-3.56 6.724-8.208 8.02-13.354.532-.345 1.038-.727 1.514-1.144l.291-.26c.2-.181.411-.372.622-.593.21-.22.43-.431.641-.682.21-.25.421-.492.622-.772.54-.703.988-1.472 1.333-2.288.14-.327.26-.662.361-1.003.194-.74.278-1.504.25-2.268-.054-1.121-.333-2.22-.821-3.23z"/>
                        <path fill="#230F0E" fill-rule="nonzero" d="M137.055 6.329c-5.554-4.264-13.183-4.395-20.12-2.529-1.083.291-2.156.622-3.218 1.004h-.07c-.622.16-9.023 2.107-13.625-3.893-.14-.179-.328-.313-.542-.386-.214-.073-.445-.082-.665-.025-.219.056-.417.175-.57.343-.152.167-.252.376-.288.6-.23.862-.451 1.665-.511 2.076-.475 2.079-.677 4.21-.602 6.341 0 3.632 0 6.191 1.123 9.221 1.002 2.81 2.005 3.27 2.536 6.02.22 1.265.556 2.508 1.003 3.712.303.812.658 1.603 1.063 2.368l1.393 1.686h.12c-.28-2.107-.45-3.873-.551-5.208-.161-1.195-.161-2.406 0-3.602.23-1.344.441-2.588 1.083-3.17 2.476-2.227 9.534 6.692 16.792 4.886 3.068-.772 4.13-2.95 8.692-3.391 1.656-.255 3.349-.117 4.942.401 5.213 2.007 6.426 9.09 6.547 9.863.29-.492.722-1.194 1.002-1.545.544-1.025.987-2.1 1.324-3.21.629-2.213.863-4.52.691-6.813-.235-2.667-.966-5.267-2.155-7.666-1.214-2.754-3.062-5.181-5.394-7.083z"/>
                        <path fill="#230F0E" d="M134.346 38.755c0 1.207-.978 2.186-2.184 2.186-1.207 0-2.184-.979-2.184-2.186 0-1.207.977-2.186 2.184-2.186 1.206 0 2.184.979 2.184 2.186 0 .805 0 .805 0 0zM115.819 38.755c0 1.207-.978 2.185-2.184 2.185-1.206 0-2.184-.978-2.184-2.185s.978-2.186 2.184-2.186c1.206 0 2.184.979 2.184 2.186 0 .804 0 .804 0 0z"/>
                        <path fill="#8B633C" fill-rule="nonzero" d="M108.315 33.54c-.221-.155-.371-.392-.418-.658-.047-.266.014-.54.17-.761.155-.221.391-.372.657-.418.19-.07 4.862-1.746 8.732-.692.266.071.492.246.63.485.137.239.174.523.102.789s-.246.493-.485.63-.522.174-.788.102c-3.248-.873-7.439.632-7.48.642-.116.036-.238.053-.36.05-.266.047-.54-.014-.76-.17z"/>
                        <use fill="#8B633C" fill-rule="nonzero" transform="rotate(-6 131.744 32.194)" xlink:href="#qxdymb99pm"/>
                        <path fill="#D4B28E" fill-rule="nonzero" d="M61.124 174.707c31.8-23.98 51.483-39.618 59.049-46.916l10.155-12.04c-7.218-11.986-18.279-12.682-33.183-2.087s-32.322 23.709-52.252 39.34c-4.41-7.926-12.789-8.203-25.133-.832-4.224 39.002 9.564 46.514 41.364 22.535z"/>
                        <path fill="#FBF9FA" fill-rule="nonzero" d="M119.34 160.54c-1.125.015-2.214-.402-3.041-1.165-.828-.763-1.333-1.815-1.41-2.939l-2.877-34.785c-.32-3.893 1.895-7.174 4.953-7.174h18.045c3.008 0 5.103 3.22 4.802 7.023l-2.717 34.274c-.078 1.119-.558 2.172-1.35 2.966-.791.794-1.842 1.277-2.96 1.358l-13.444.442z"/>
                        <path fill="#383838" fill-rule="nonzero" d="M114.91 156.446c.06.724.295 1.423.682 2.038.387.614.917 1.127 1.543 1.494l3.008-4.184-4.882-14.779 9.092 2.96 11.46 2.428 2.365-4.164.582-7.304c-5.888 4.22-14.407 4.515-25.555.883l1.705 20.628z" opacity=".2"/>
                        <path fill="#F3E8E0" fill-rule="nonzero" d="M117.47 129.102c-.385-.447-.587-1.022-.565-1.612l-.271-4.796c-.08-1.455.772-2.659 1.915-2.659.623.088 1.19.409 1.587.899.396.49.592 1.112.548 1.74l.16 4.776c.04.284.023.572-.05.849-.072.277-.199.536-.372.764-.173.228-.39.419-.638.562-.247.143-.52.236-.804.273-.586-.065-1.125-.35-1.51-.796z"/>
                        <path fill="#D4B28E" fill-rule="nonzero" d="M191.823 150.456l-49.013-9.23c1.073-3.542-2.426-5.288-4.07-5.89-.21-.078-.441-.074-.648.011-.206.086-.373.247-.465.45-4.1 8.479-22.988 1.957-24.512 1.135-1.524-.823-3.128.662-3.308 4.294-.12 2.421 1.216 3.649 4.01 3.682-3.482 3.003-3.425 5.344.17 7.023-2.085 2.448-1.62 4.87 1.394 7.264-1.163 2.622-.408 4.294 2.266 5.017.794.203 3.552.542 4.23 1.003 6.206 2.298 9.314 3.442 11.228 3.943 2.612.697 5.259 1.25 7.93 1.656h1.775c28.371 5.384 49.846 8.424 64.422 9.12 14.577.696 19.466-9.09 14.667-29.357-11.409-8.435-21.434-8.475-30.076-.12z"/>
                        <path fill="#8B633C" fill-rule="nonzero" d="M44.893 153.035s-6.606-11.92-25.133-.863c11.288-3.686 19.666-3.398 25.133.863zM221.88 150.577c.02 0-15.27-7.736-30.077-.12 8.836-8.429 18.861-8.389 30.076.12z"/>
                        <path fill="#E8D6C7" d="M118.75 123.778c.553 0 1.002-.45 1.002-1.003 0-.554-.449-1.004-1.003-1.004-.553 0-1.002.45-1.002 1.004s.449 1.003 1.002 1.003zM118.75 127.791c.553 0 1.002-.449 1.002-1.003 0-.554-.449-1.003-1.003-1.003-.553 0-1.002.449-1.002 1.003 0 .554.449 1.003 1.002 1.003z"/>
                    </g>
                    <path fill="#C79E78" d="M113.263 51.352c-2.012.033-4.288-1.92-4.263-3.659.032-2.176 2.164-4.304 4.257-4.25 1.868.05 3.652 1.92 3.739 3.922.097 2.24-1.504 3.95-3.733 3.987M134.263 51.352c-2.012.033-4.288-1.92-4.263-3.659.032-2.176 2.164-4.304 4.257-4.25 1.868.05 3.652 1.92 3.739 3.922.097 2.24-1.504 3.95-3.733 3.987" transform="translate(0 28)"/>
                    <path fill="#8B633C" d="M124.217 39.209c.402 2.054 1.068 4.057 1.625 6.08.545 1.977-2.157 4.695-4.17 4.198-.384-.094-.675-.31-.672-.682.004-.488.383-.812.808-.934 2.802-.807 2.516-2.65 1.624-4.716-.07-.16-.146-.321-.19-.49-.73-2.809.455-6.117.975-3.456z" transform="translate(0 28)"/>
                    <path fill="#F8F0E5" d="M118.64 55.386c-1.066-1.271-.816-2.315.869-2.093 2.873.379 5.678.61 8.5-.21.504-.147 1.111-.152 1.353.435.55 1.34-1.002 1.377-1.398 2.141-3.126.5-6.223.056-9.324-.273" transform="translate(0 28)"/>
                    <path fill="#4E280B" d="M118.64 55.386c3.1.329 6.198.772 9.324.273-2.365 3.882-6.916 3.748-9.324-.273" transform="translate(0 28)"/>
                </g>
                <path fill="#90A7D2" d="M46.945 77.988c-.12-5.881-2.45-10.132-6.47-11.32-4.774-1.411-9.642-1.47-13.747-1.32-3.035 0-5.321-.167-7.592.033-5.607.496-10.663 3.646-11.093 13.471-.22 5.039.47 9.824.657 14.73.233 6.097 1.559 8.6 5.737 9.813 6.235 1.811 12.491.404 18.725-.308 2.642-.302 5.285-.699 7.819-2.1 3.625-2.005 5.882-6.226 5.973-11.804.06-3.73.066-7.466-.01-11.195"/>
                <path fill="#90A7D2" d="M222.942 46.988c-.126-5.881-2.576-10.132-6.801-11.32-5.02-1.411-10.137-1.47-14.453-1.32-3.19 0-5.594-.167-7.98.033-5.895.496-11.21 3.646-11.663 13.471-.232 5.039.494 9.824.691 14.73.245 6.097 1.639 8.6 6.031 9.813 6.555 1.811 13.132.404 19.686-.308 2.777-.302 5.555-.699 8.22-2.1 3.81-2.005 6.183-6.226 6.278-11.804.063-3.73.07-7.466-.01-11.195" transform="rotate(-180 202.5 53.783)"/>
                <g stroke="#FFF" stroke-linecap="round" stroke-linejoin="round" stroke-width="1.824">
                    <g>
                        <path d="M4.832 7.832h0c-.89-.89-.89-2.335 0-3.225.89-.89 2.334-.89 3.225 0 .89.89.89 2.334 0 3.225-.89.89-2.334.89-3.225 0z" transform="translate(196 46) translate(.6 .6)"/>
                        <path d="M6.445 0c3.704 0 6.584 3.13 6.439 6.621-.244 5.85-6.44 9.795-6.44 9.795" transform="translate(196 46) translate(.6 .6)"/>
                        <path d="M.416 8.936c.081.257.172.509.271.755 1.663 4.118 5.758 6.725 5.758 6.725M6.445 0C2.74 0-.14 3.13.005 6.621" transform="translate(196 46) translate(.6 .6)"/>
                    </g>
                </g>
                <path fill="#FFF" fill-rule="nonzero" d="M27.727 94.185c.552-.023 1.012-.322.989-.69l-.184-2.139c2.507-.322 4.048-2.139 4.048-4.048 0-2.714-2.369-3.956-4.416-4.761-1.679-.621-2.438-1.288-2.438-2.231 0-.782.621-1.38 1.794-1.38 1.127 0 1.978.552 2.875 1.104.276.161.598 0 .759-.253l.851-1.219c.138-.207.092-.552-.138-.667-.368-.276-1.633-1.104-3.335-1.334l.184-2.185c.023-.368-.437-.713-.989-.69-.552.023-1.012.322-.989.69l.184 2.162c-2.852.276-4.025 2.231-4.025 3.933 0 2.461 1.978 3.726 3.956 4.508 1.748.667 2.622 1.403 2.622 2.438 0 .874-.782 1.541-1.863 1.541-1.357 0-2.277-.621-3.128-1.265-.23-.161-.552-.161-.736.138l-.805 1.334c-.184.299-.092.437.115.598.575.437 1.725 1.403 3.841 1.61l-.161 2.116c-.023.368.437.713.989.69z"/>
                <path fill="#D8E0F6" fill-rule="nonzero" d="M94.307 89c.284-.012.52-.172.508-.37l-.094-1.148c1.287-.172 2.079-1.148 2.079-2.172 0-1.457-1.217-2.123-2.268-2.556-.862-.333-1.252-.69-1.252-1.197 0-.42.319-.74.921-.74.579 0 1.016.296 1.477.592.141.086.307 0 .39-.136l.436-.654c.071-.111.048-.296-.07-.358-.19-.148-.84-.593-1.713-.716l.094-1.173c.012-.197-.224-.382-.508-.37-.283.012-.52.173-.507.37l.094 1.16c-1.465.149-2.067 1.198-2.067 2.112 0 1.32 1.016 2 2.032 2.419.897.358 1.346.753 1.346 1.309 0 .469-.401.827-.957.827-.696 0-1.169-.334-1.606-.68-.118-.086-.283-.086-.378.075l-.413.716c-.095.16-.048.234.059.32.295.235.886.754 1.972.865L93.8 88.63c-.012.198.224.383.507.37zM151.63 94.186c.227-.01.416-.126.407-.27l-.076-.835c1.03-.125 1.663-.835 1.663-1.58 0-1.059-.973-1.544-1.814-1.858-.69-.242-1.002-.503-1.002-.87 0-.306.255-.54.737-.54.463 0 .813.216 1.182.431.113.063.245 0 .311-.098l.35-.476c.057-.081.038-.216-.057-.26-.15-.108-.67-.431-1.37-.521l.076-.853c.01-.144-.18-.278-.407-.27-.226.01-.415.126-.406.27l.076.844c-1.172.107-1.654.87-1.654 1.535 0 .96.813 1.454 1.625 1.76.718.26 1.078.547 1.078.951 0 .341-.322.602-.766.602-.557 0-.935-.243-1.285-.494-.094-.063-.227-.063-.302.054l-.331.52c-.076.117-.038.171.047.234.236.17.709.548 1.578.628l-.066.826c-.01.144.18.279.406.27zM95.627 54.186c.114-.005.208-.063.203-.135l-.037-.417c.515-.063.831-.418.831-.79 0-.53-.486-.772-.907-.93-.345-.12-.5-.25-.5-.435 0-.153.127-.27.368-.27.231 0 .406.108.59.216.057.032.123 0 .156-.05l.175-.237c.028-.04.019-.108-.028-.13-.076-.054-.336-.216-.685-.26l.037-.427c.005-.072-.09-.14-.203-.135-.113.005-.208.063-.203.135l.038.422c-.586.054-.827.435-.827.768 0 .48.406.727.813.88.359.13.538.273.538.475 0 .17-.16.3-.382.3-.28 0-.468-.12-.643-.246-.047-.031-.113-.031-.151.027l-.165.26c-.038.059-.02.086.023.117.118.085.355.274.79.314l-.034.413c-.005.072.09.14.203.135z"/>
            </g>
        </g>
    </g>
</svg>
