<svg xmlns="http://www.w3.org/2000/svg" xmlns:xlink="http://www.w3.org/1999/xlink" width="250" height="250" viewBox="0 0 250 250">
    <defs>
        <path id="hf8jc21yya" d="M125 0c69.035 0 125 55.964 125 125s-55.965 125-125 125C55.964 250 0 194.036 0 125S55.964 0 125 0"/>
        <path id="9a8w85g8ec" d="M0 0.266L266.797 0.266 266.797 1.266 0 1.266z"/>
    </defs>
    <g fill="none" fill-rule="evenodd">
        <g>
            <g transform="translate(-63 -115) translate(63 115)">
                <mask id="0mwkkbvf1b" fill="#fff">
                    <use xlink:href="#hf8jc21yya"/>
                </mask>
                <use fill="#FAFAFA" xlink:href="#hf8jc21yya"/>
                <g mask="url(#0mwkkbvf1b)">
                    <g>
                        <path fill="#F8F8F8" d="M137 9c69.035 0 125 55.964 125 125s-55.965 125-125 125c-69.036 0-125-55.964-125-125S67.964 9 137 9" transform="translate(-12 -9)"/>
                        <path stroke="#FFF" stroke-width="1.5" d="M73.563 0L73.563 266.797M198.564 0L198.564 266.797M267.797 83.563L1 83.563" transform="translate(-12 -9)"/>
                        <g transform="translate(-12 -9) translate(0 183.797)">
                            <mask id="hxj7ft80fd" fill="#fff">
                                <use xlink:href="#9a8w85g8ec"/>
                            </mask>
                            <path stroke="#FFF" stroke-width="1.5" d="M266.797 0.766L0 0.766" mask="url(#hxj7ft80fd)"/>
                        </g>
                        <path fill="#4875E9" d="M243.071 265.597s-11.856-93.515-10.47-113.15c1.387-19.634 2.095-54.755 13.543-55.737 4.766-.409 12.715 21.072 11.033 63.561-1.01 25.564-14.106 105.326-14.106 105.326" transform="translate(-12 -9)"/>
                        <path stroke="#5E86EC" stroke-linecap="round" stroke-linejoin="round" stroke-width="1.5" d="M244.571 98.676s.818 122.246.612 144" transform="translate(-12 -9)"/>
                        <path fill="#4875E9" d="M247.994 259.468s-10.333-60.651-16.672-77.573c-6.94-18.528-14.975-25.443-21.364-24.5-6.767.998-8.97 13.585-1.555 35.403 5.978 17.59 36.646 71.682 36.646 71.682l2.945-5.012z" transform="translate(-12 -9)"/>
                        <path stroke="#5E86EC" stroke-linecap="round" stroke-linejoin="round" stroke-width="1.5" d="M208.563 159.104s24.946 55.946 34 93" transform="translate(-12 -9)"/>
                        <path stroke="#4875E9" stroke-linecap="round" stroke-linejoin="round" stroke-width="1.046" d="M74.137 1.47v56.762c0 18.05-14.63 32.68-32.679 32.68H2.83" transform="translate(-12 -9)"/>
                        <path fill="#4875E9" d="M66.51 39.348c-5.834 3.37-12.213 3.246-14.246-.275-2.033-3.52 1.05-9.106 6.886-12.475 5.835-3.37 12.214-3.247 14.247.274 2.032 3.521-1.051 9.107-6.886 12.476" transform="translate(-12 -9)"/>
                        <path fill="#6D91ED" d="M66.51 75.951c-5.834 3.37-12.213 3.246-14.246-.275-2.033-3.52 1.05-9.106 6.886-12.475 5.835-3.37 12.214-3.247 14.247.274 2.032 3.521-1.051 9.107-6.886 12.476" transform="translate(-12 -9)"/>
                        <path fill="#4875E9" d="M24.703 86.127c-4.331-5.162-5.317-11.465-2.203-14.079 3.114-2.613 9.15-.547 13.482 4.615 4.33 5.162 5.318 11.465 2.203 14.078-3.114 2.614-9.15.548-13.482-4.614" transform="translate(-12 -9)"/>
                        <path fill="#6D91ED" d="M20.121 105.648c4.331-5.162 5.318-11.465 2.203-14.079-3.114-2.613-9.15-.547-13.48 4.615-4.333 5.162-5.319 11.465-2.205 14.078 3.115 2.614 9.15.548 13.482-4.614M49.404 105.648c4.332-5.162 5.318-11.465 2.204-14.079-3.115-2.613-9.151-.547-13.482 4.615-4.332 5.162-5.318 11.465-2.204 14.078 3.115 2.614 9.15.548 13.482-4.614M81.112 22.268c5.835 3.369 12.214 3.246 14.247-.275 2.033-3.521-1.05-9.106-6.886-12.475-5.835-3.37-12.214-3.247-14.247.274-2.032 3.52 1.051 9.107 6.886 12.476M81.112 58.87c5.835 3.37 12.214 3.246 14.247-.275 2.033-3.52-1.05-9.106-6.886-12.475-5.835-3.37-12.214-3.247-14.247.274-2.032 3.521 1.051 9.107 6.886 12.476" transform="translate(-12 -9)"/>
                        <path fill="#4875E9" d="M63.058 91.194c1.17 6.636 5.365 11.443 9.37 10.737 4.003-.706 6.3-6.657 5.13-13.294-1.17-6.636-5.365-11.443-9.369-10.737-4.004.706-6.3 6.658-5.13 13.294" transform="translate(-12 -9)"/>
                        <path fill="#D4B28E" d="M149.568 265l-5.316-26.581C122.775 228 104.468 185.372 98.002 166.5 83.381 164.108 82.138 156.658 84 154c1.488-2.126 8.065-2.386 11.343-1.5-3.19-1.063-14.469-5.355-12.343-12 1.701-5.316 8.798-5.063 12.343-4-6.91-2.392-18.32-5.845-15.343-13.5 2.977-7.655 12.42-4.459 18.001-1.27l18.075-36.149 66.276 52.741c5.867 4.669 9.49 11.597 9.975 19.079l4.29 66.133 7.44 25.518L149.568 265z" transform="translate(-12 -9)"/>
                        <path fill="#FFF" d="M167.032 214.256l-54.442 4.747c-6.07.53-11.416-3.932-11.946-9.968L89.964 87.34c-.529-6.037 3.958-11.355 10.03-11.886l54.441-4.747c6.07-.53 11.416 3.93 11.946 9.968l10.68 121.694c.53 6.037-3.959 11.355-10.029 11.886" transform="translate(-12 -9)"/>
                        <path stroke="#90A7D2" stroke-width="3.543" d="M167.032 214.256l-54.442 4.747c-6.07.53-11.416-3.932-11.946-9.968L89.964 87.34c-.529-6.037 3.958-11.355 10.03-11.886l54.441-4.747c6.07-.53 11.416 3.93 11.946 9.968l10.68 121.694c.53 6.037-3.959 11.355-10.029 11.886z" transform="translate(-12 -9)"/>
                        <path fill="#90A7D2" d="M108.344 74.84l37.272-3.255c-.075 4.3-3.382 7.848-7.668 8.222l-20.621 1.8c-4.283.375-8.16-2.547-8.983-6.767" transform="translate(-12 -9)"/>
                        <path fill="#FBF9FA" d="M104.989 109.182l51.855-3.884c2.203-.165 4.122 1.488 4.287 3.691l.972 12.963c.165 2.203-1.488 4.123-3.691 4.288l-51.855 3.883c-2.202.165-4.122-1.486-4.287-3.69l-.971-12.963c-.165-2.203 1.487-4.123 3.69-4.288" transform="translate(-12 -9)"/>
                        <path fill="#FFF" d="M111.77 112.686c3.58-.268 6.699 2.417 6.967 5.997.267 3.579-2.416 6.699-5.996 6.967-3.58.268-6.7-2.417-6.969-5.997-.268-3.579 2.417-6.699 5.997-6.967" transform="translate(-12 -9)"/>
                        <path fill="#2E3E5C" d="M123.662 114.84l18.947-1.42c.551-.04 1.031.372 1.072.922.042.551-.372 1.031-.922 1.072l-18.948 1.42c-.55.041-1.03-.372-1.07-.923-.043-.55.37-1.03.921-1.072M124.036 119.825l30.913-2.315c.551-.04 1.031.372 1.072.922.041.551-.372 1.031-.923 1.072l-30.913 2.316c-.55.041-1.03-.372-1.07-.923-.043-.55.37-1.03.921-1.072M146.599 113.121l7.978-.597c.55-.042 1.03.371 1.07.922.043.551-.37 1.031-.921 1.072l-7.978.598c-.55.041-1.031-.372-1.072-.923-.041-.55.372-1.03.923-1.072" transform="translate(-12 -9)"/>
                        <path fill="#FBF9FA" d="M106.989 137.182l51.855-3.884c2.203-.165 4.122 1.488 4.287 3.691l.972 12.963c.165 2.203-1.488 4.123-3.691 4.288l-51.855 3.883c-2.202.165-4.122-1.486-4.287-3.69l-.971-12.963c-.165-2.203 1.487-4.123 3.69-4.288" transform="translate(-12 -9)"/>
                        <path fill="#FFF" d="M113.77 140.686c3.58-.268 6.699 2.417 6.967 5.997.267 3.579-2.416 6.699-5.996 6.967-3.58.268-6.7-2.417-6.969-5.997-.268-3.579 2.417-6.699 5.997-6.967" transform="translate(-12 -9)"/>
                        <path fill="#2E3E5C" d="M125.662 142.84l18.947-1.42c.551-.04 1.031.372 1.072.922.042.551-.372 1.031-.922 1.072l-18.948 1.42c-.55.041-1.03-.372-1.07-.923-.043-.55.37-1.03.921-1.072M126.036 147.825l30.913-2.315c.551-.04 1.031.372 1.072.922.041.551-.372 1.031-.923 1.072l-30.913 2.316c-.55.041-1.03-.372-1.07-.923-.043-.55.37-1.03.921-1.072M148.599 141.121l7.978-.597c.55-.042 1.03.371 1.07.922.043.551-.37 1.031-.921 1.072l-7.978.598c-.55.041-1.031-.372-1.072-.923-.041-.55.372-1.03.923-1.072" transform="translate(-12 -9)"/>
                        <path fill="#FBF9FA" d="M108.989 166.182l51.855-3.884c2.203-.165 4.122 1.488 4.287 3.691l.972 12.963c.165 2.203-1.488 4.123-3.691 4.288l-51.855 3.883c-2.202.165-4.122-1.486-4.287-3.69l-.971-12.963c-.165-2.203 1.487-4.123 3.69-4.288" transform="translate(-12 -9)"/>
                        <path fill="#FFF" d="M115.77 169.686c3.58-.268 6.699 2.417 6.967 5.997.267 3.579-2.416 6.699-5.996 6.967-3.58.268-6.7-2.417-6.969-5.997-.268-3.579 2.417-6.699 5.997-6.967" transform="translate(-12 -9)"/>
                        <path fill="#2E3E5C" d="M127.662 171.84l18.947-1.42c.551-.04 1.031.372 1.072.922.042.551-.372 1.031-.922 1.072l-18.948 1.42c-.55.041-1.03-.372-1.07-.923-.043-.55.37-1.03.921-1.072M128.036 176.825l30.913-2.315c.551-.04 1.031.372 1.072.922.041.551-.372 1.031-.923 1.072l-30.913 2.316c-.55.041-1.03-.372-1.07-.923-.043-.55.37-1.03.921-1.072" transform="translate(-12 -9)"/>
                        <path fill="#FFF" d="M150.599 170.121l7.978-.597c.55-.042 1.03.371 1.07.922.043.551-.37 1.031-.921 1.072l-7.978.598c-.55.041-1.031-.372-1.072-.923-.041-.55.372-1.03.923-1.072" transform="translate(-12 -9)"/>
                        <path stroke="#C79E78" stroke-linecap="round" stroke-width="2" d="M158.871 224.863c-2.783-2.34-3.816-6.048-3.734-10.366" transform="translate(-12 -9)"/>
                        <path stroke="#2C3149" stroke-linecap="round" stroke-linejoin="round" stroke-width=".835" d="M127.853 91.749c.44-.59 1.102-.993 1.87-1.066 1.488-.143 2.817 1.008 2.966 2.572l.085.88c.1 1.06.454 2.056 1.19 2.767l-7.227.692c.587-.838.746-1.883.645-2.944l-.086-.88c-.035-.376 0-.742.096-1.084" transform="translate(-12 -9)"/>
                        <path stroke="#2C3149" stroke-linecap="round" stroke-linejoin="round" stroke-width="1.043" d="M130.723 97.394c.045.06.076.133.083.213.022.231-.147.436-.377.459-.23.022-.436-.148-.458-.379-.008-.076.006-.151.038-.218" transform="translate(-12 -9)"/>
                        <path fill="#2E3E5C" d="M115.503 121.041c.012.112-.07.213-.181.225l-5.71.612c-.111.013-.213-.069-.224-.18l-.345-3.214.428.936c.11.24.36.382.622.355l1.14-.124.023.204c.013.111.113.192.225.181l1.624-.174c.112-.012.193-.112.18-.224l-.021-.204 1.142-.123c.263-.028.476-.22.533-.478l.219-1.005.345 3.213zm-2.688-1.97l.043.407-1.217.13-.044-.406 1.218-.13zm2.152-2.282l-.427 1.957c-.02.087-.09.15-.178.16l-1.141.122-.022-.203c-.012-.112-.113-.194-.225-.18l-1.623.174c-.113.011-.194.111-.181.224l.02.203-1.141.123c-.087.008-.171-.038-.207-.12l-.833-1.822 5.958-.639zm-4.06-.181c-.011-.112.07-.213.182-.226l1.624-.174c.112-.011.213.07.225.181l.022.204-2.03.218-.022-.204zm4.3-.255h-.001l-1.841.197-.021-.203c-.036-.337-.34-.58-.674-.544l-1.624.175c-.336.035-.58.338-.543.672l.02.204-1.84.198c-.112.011-.192.113-.18.223l.479 4.466c.036.335.338.58.674.543l5.709-.612c.336-.035.58-.338.544-.673l-.478-4.462c-.023-.133-.112-.197-.224-.184zM119.256 178.166c.012.112-.069.212-.18.225l-5.71.612c-.112.012-.214-.069-.225-.181l-.345-3.215.428.937c.11.24.36.383.622.354l1.142-.122.021.203c.013.112.113.193.225.181l1.624-.174c.112-.012.193-.112.181-.225l-.022-.202 1.142-.123c.263-.028.476-.22.533-.478l.22-1.006.344 3.214zm-2.688-1.97l.043.406-1.217.13-.044-.405 1.218-.131zm2.152-2.283l-.427 1.958c-.019.086-.09.149-.178.159l-1.14.122-.023-.202c-.012-.113-.113-.194-.225-.181l-1.623.173c-.113.013-.194.113-.18.225l.02.203-1.142.123c-.087.009-.17-.038-.207-.119l-.833-1.823 5.958-.638zm-4.059-.181c-.012-.112.07-.213.181-.225l1.624-.174c.112-.012.213.069.225.181l.022.203-2.03.218-.022-.203zm4.3-.256h-.002l-1.84.198-.022-.203c-.036-.336-.339-.58-.674-.544l-1.624.174c-.336.036-.58.338-.543.674l.021.204-1.84.197c-.113.012-.193.114-.18.224l.478 4.465c.036.336.338.58.674.544l5.71-.613c.335-.036.58-.338.543-.673l-.478-4.461v-.001c-.023-.133-.112-.196-.224-.185zM116.432 146.068c-.128.015-.257.01-.382-.017-.055-.012-.11.01-.146.053l-2.56 3.242c-.036.044-.042.104-.018.155.164.347.151.74-.036 1.078-.187.336-.513.555-.895.6-.042.005-.085.007-.128.008l.411-.517c.025-.03.036-.07.031-.109l-.048-.415c-.005-.038-.025-.074-.055-.099l-.469-.37c-.03-.024-.07-.035-.109-.03l-.415.048c-.039.005-.075.025-.099.056l-.407.52c-.009-.042-.017-.084-.022-.127-.045-.382.093-.75.377-1.01.284-.259.664-.363 1.04-.284.055.012.112-.009.146-.053l2.561-3.242c.035-.044.041-.104.017-.154-.164-.348-.15-.74.036-1.078.187-.337.513-.556.895-.6.044-.006.088-.009.132-.009l-.4.517c-.025.03-.036.07-.032.108l.05.414c.004.038.023.073.052.097l.454.372c.031.026.071.037.111.033l.415-.049c.04-.005.075-.025.1-.056l.406-.519c.01.041.017.083.022.126.076.647-.389 1.235-1.035 1.311zm-1.062 1.662l-.572.724-.223-.192.557-.704.238.172zm.24.173l2.245 1.622c.253.202.296.572.095.827-.202.256-.57.3-.827.1l-2.1-1.805.587-.744zm-4.065-2.42c-.03-.026-.07-.035-.109-.03l-.33.038-.624-.807.223-.283.93.42.038.33c.004.04.024.075.055.1l2.058 1.63-.182.23-2.059-1.629zm5.967-1.303c-.05-.006-.1.015-.133.056l-.536.684-.29.034-.36-.295-.035-.295.527-.678c.031-.04.04-.094.022-.14-.017-.049-.058-.085-.108-.095-.156-.033-.317-.04-.477-.022-.478.056-.885.33-1.118.751-.218.394-.247.848-.08 1.262l-.954 1.206-2.01-1.592-.043-.354c-.006-.05-.038-.096-.086-.117l-1.109-.5c-.062-.028-.135-.01-.177.043l-.365.463c-.042.053-.043.128 0 .182l.742.963c.031.041.082.062.134.057l.354-.042 2.011 1.592-.949 1.202c-.44-.065-.876.068-1.209.372-.355.324-.527.784-.47 1.261.018.16.062.315.13.46.022.045.067.077.117.083.051.005.101-.016.133-.056l.536-.684.293-.034.373.294.034.293-.54.68c-.033.04-.042.094-.024.142.017.048.058.084.108.094.156.034.317.041.477.022.478-.056.885-.33 1.118-.75.218-.395.247-.85.082-1.262l.762-.966.223.192-.08.101c-.05.064-.04.157.024.208.064.05.157.04.207-.025l.073-.09 2.094 1.797.005.004c.384.304.94.238 1.244-.146.302-.383.237-.94-.146-1.244-.002 0-.004-.002-.005-.004l-2.238-1.615.072-.09c.05-.065.04-.159-.025-.209-.064-.05-.157-.039-.207.025l-.08.1-.238-.172.766-.97c.127.02.256.02.386.005.808-.095 1.388-.83 1.293-1.638-.019-.16-.063-.315-.13-.459-.023-.047-.068-.078-.118-.084z" transform="translate(-12 -9)"/>
                        <path stroke="#2E3E5C" stroke-width=".1" d="M116.432 146.068c-.128.015-.257.01-.382-.017-.055-.012-.11.01-.146.053l-2.56 3.242c-.036.044-.042.104-.018.155.164.347.151.74-.036 1.078-.187.336-.513.555-.895.6-.042.005-.085.007-.128.008l.411-.517c.025-.03.036-.07.031-.109l-.048-.415c-.005-.038-.025-.074-.055-.099l-.469-.37c-.03-.024-.07-.035-.109-.03l-.415.048c-.039.005-.075.025-.099.056l-.407.52c-.009-.042-.017-.084-.022-.127-.045-.382.093-.75.377-1.01.284-.259.664-.363 1.04-.284.055.012.112-.009.146-.053l2.561-3.242c.035-.044.041-.104.017-.154-.164-.348-.15-.74.036-1.078.187-.337.513-.556.895-.6.044-.006.088-.009.132-.009l-.4.517c-.025.03-.036.07-.032.108l.05.414c.004.038.023.073.052.097l.454.372c.031.026.071.037.111.033l.415-.049c.04-.005.075-.025.1-.056l.406-.519c.01.041.017.083.022.126.076.647-.389 1.235-1.035 1.311zm-1.062 1.662l-.572.724-.223-.192.557-.704.238.172zm.24.173l2.245 1.622c.253.202.296.572.095.827-.202.256-.57.3-.827.1l-2.1-1.805.587-.744zm-4.065-2.42c-.03-.026-.07-.035-.109-.03l-.33.038-.624-.807.223-.283.93.42.038.33c.004.04.024.075.055.1l2.058 1.63-.182.23-2.059-1.629zm5.967-1.303c-.05-.006-.1.015-.133.056l-.536.684-.29.034-.36-.295-.035-.295.527-.678c.031-.04.04-.094.022-.14-.017-.049-.058-.085-.108-.095-.156-.033-.317-.04-.477-.022-.478.056-.885.33-1.118.751-.218.394-.247.848-.08 1.262l-.954 1.206-2.01-1.592-.043-.354c-.006-.05-.038-.096-.086-.117l-1.109-.5c-.062-.028-.135-.01-.177.043l-.365.463c-.042.053-.043.128 0 .182l.742.963c.031.041.082.062.134.057l.354-.042 2.011 1.592-.949 1.202c-.44-.065-.876.068-1.209.372-.355.324-.527.784-.47 1.261.018.16.062.315.13.46.022.045.067.077.117.083.051.005.101-.016.133-.056l.536-.684.293-.034.373.294.034.293-.54.68c-.033.04-.042.094-.024.142.017.048.058.084.108.094.156.034.317.041.477.022.478-.056.885-.33 1.118-.75.218-.395.247-.85.082-1.262l.762-.966.223.192-.08.101c-.05.064-.04.157.024.208.064.05.157.04.207-.025l.073-.09 2.094 1.797.005.004c.384.304.94.238 1.244-.146.302-.383.237-.94-.146-1.244-.002 0-.004-.002-.005-.004l-2.238-1.615.072-.09c.05-.065.04-.159-.025-.209-.064-.05-.157-.039-.207.025l-.08.1-.238-.172.766-.97c.127.02.256.02.386.005.808-.095 1.388-.83 1.293-1.638-.019-.16-.063-.315-.13-.459-.023-.047-.068-.078-.118-.084z" transform="translate(-12 -9)"/>
                        <path fill="#D4B28E" d="M148.075 147.13l26.48 12.079 14.716 55.819-30.4 9.835c-8.068-6.784-1.432-25.057 4.47-36.381 1.465-2.816.886-6.32-1.563-8.341l-22.234-18.338c-.576-.475-1.247-.824-1.967-1.023l-12.893-3.563c-3.82-1.055-6.736-4.147-7.565-8.022l-.185-.861c-.435-2.034 1.161-3.934 3.24-3.856l19.878.75c2.773.105 5.5.752 8.023 1.903" transform="translate(-12 -9)"/>
                        <path fill="#C79E78" d="M118.462 147.436c1.192-2.527 7.355-1.726 10.785-.873.63.157 1.124.639 1.223 1.281.152.982.235 2.58-.336 4.334-.597 1.837-1.714 2.911-2.447 3.448-.431.316-.991.334-1.481.121-3.94-1.715-9.112-5.412-7.744-8.311" transform="translate(-12 -9)"/>
                    </g>
                </g>
            </g>
        </g>
    </g>
</svg>
