<svg xmlns="http://www.w3.org/2000/svg" xmlns:xlink="http://www.w3.org/1999/xlink" width="302" height="246" viewBox="0 0 302 246">
    <defs>
        <circle id="25291tu03d" cx="122.585" cy="122.585" r="122.585"/>
        <circle id="w20pj48goa" cx="-.841" cy="46.334" r="43.05"/>
        <circle id="wehved0zfb" cx="94.257" cy="149.604" r="43.05"/>
        <circle id="vowp2rdusc" cx="197.443" cy="91.629" r="43.05"/>
        <mask id="f48ig43j6h" width="86.1" height="86.1" x="0" y="0" fill="#fff" maskContentUnits="userSpaceOnUse" maskUnits="objectBoundingBox">
            <use xlink:href="#w20pj48goa"/>
        </mask>
        <mask id="a9kqu1spii" width="86.1" height="86.1" x="0" y="0" fill="#fff" maskContentUnits="userSpaceOnUse" maskUnits="objectBoundingBox">
            <use xlink:href="#wehved0zfb"/>
        </mask>
        <mask id="51kumc6srj" width="86.1" height="86.1" x="0" y="0" fill="#fff" maskContentUnits="userSpaceOnUse" maskUnits="objectBoundingBox">
            <use xlink:href="#vowp2rdusc"/>
        </mask>
        <path id="r2j3ahvlrf" d="M192.525 8.514C173.617 26.15 148.717 35.96 122.853 35.96c-25.864 0-50.764-9.809-69.672-27.446C33.366-9.974 1.054 3.674.53 30.762v1.67c-.39 67.962 55.607 123.711 123.599 122.985 32.221-.339 63.007-13.369 85.672-36.26s35.38-53.795 35.38-85.999c0-.972-.01-1.954-.03-2.926-.638-26.834-32.999-40.03-52.627-21.718z"/>
    </defs>
    <g fill="none" fill-rule="evenodd">
        <g>
            <g>
                <g transform="translate(-15 -112) translate(5.273 96) rotate(8 38.958 565.215)">
                    <mask id="843248awte" fill="#fff">
                        <use xlink:href="#25291tu03d"/>
                    </mask>
                    <use fill="#F8F8F8" xlink:href="#25291tu03d"/>
                    <g mask="url(#843248awte)">
                        <g transform="rotate(-9 701.624 79.447)">
                            <mask id="6rzf723mjg" fill="#fff">
                                <use xlink:href="#r2j3ahvlrf"/>
                            </mask>
                            <use fill="#EAEAEA" fill-rule="nonzero" xlink:href="#r2j3ahvlrf"/>
                            <g stroke-dasharray="0 0" stroke-width="8.4" mask="url(#6rzf723mjg)">
                                <use stroke="#FFF" mask="url(#f48ig43j6h)" xlink:href="#w20pj48goa"/>
                            </g>
                            <g stroke-dasharray="0 0" stroke-width="8.4" mask="url(#6rzf723mjg)">
                                <use stroke="#FFF" mask="url(#a9kqu1spii)" xlink:href="#wehved0zfb"/>
                            </g>
                            <g stroke-dasharray="0 0" stroke-width="8.4" mask="url(#6rzf723mjg)">
                                <use stroke="#FFF" mask="url(#51kumc6srj)" xlink:href="#vowp2rdusc"/>
                            </g>
                        </g>
                    </g>
                    <g mask="url(#843248awte)">
                        <g>
                            <path fill="#F4C91B" d="M.973 95.715c2.233-14.122 9.939-21.85 24.99-24.49 5.563-.977 9.22-3.462 10.966-9.021 1.551-4.94 4.137-9.426 7.945-13.071 1.763-1.688 3.678-3.154 6.179-3.59-.066 3.342.022 6.671.715 9.96 2.75 13.042 10.296 22.589 21.538 29.388 8.018 4.85 14.814 10.823 18.65 19.626.314.725.764 1.304 1.469 1.673-5.545 7.634-11.542 14.886-18.254 21.531-3.542-3.231-7.36-6.113-11.394-8.686-12.425-7.924-25.746-13.97-39.739-18.519-7.5-2.438-15.055-4.749-23.065-4.801M119.875 19.284c4.174 1.157 7.774 2.363 11.637 2.094.915-.063 1.946-.226 2.027-1.387.076-1.083-.89-1.29-1.712-1.457-3.87-.782-7.644-.125-11.952.75m.031-4.277c5.025-2.408 9.589-5.472 13.395-9.57.614-.662 1.57-1.504.693-2.548-.768-.914-1.866-.653-2.727-.135-4.966 2.988-8.6 7.23-11.334 12.287l-.31.001.095.258.188-.293m16.44 63.938c-2.368-6.323-5.266-12.331-9.313-17.819-3.987-5.405-9.214-7.05-15.55-6.204-2.625.35-5.255.7-7.857 1.191-3.081.583-5.48-.54-7.566-2.67-3.026-3.089-4.92-6.884-6.625-10.776-1.335-3.045-2.394-6.197-3.439-9.357-.516-1.565-.237-2.216 1.301-2.848 8.394-3.448 16.733-7.028 25.109-10.52 1.242-.518 2.274-1.125 2.575-2.54 3.37-4.663 6.491-9.523 10.738-13.488 1.73-1.615 3.533-3.096 5.885-3.735 1.822-.495 3.306.049 4.445 1.477 1.131 1.418.693 2.871-.185 4.209-1.697 2.585-4.116 4.434-6.59 6.2-1.713 1.224-3.483 2.368-5.672 3.849 1.926 0 3.36.012 4.794-.004 1.522-.017 3.035-.005 4.502.483 1.91.635 3.23 1.733 2.962 3.961-.262 2.197-1.836 3.061-3.767 3.286-2.508.292-4.992-.05-7.435-.672-1.687-.43-3.377-.843-5.065-1.264-.21-.266-.584-.384-.753-.164-.249.324.245.373.39.563 10.625 9.687 21.583 18.994 32.516 28.328 2.59 2.21 5.199 4.397 7.798 6.595-1.792 1.269-3.6 2.516-5.374 3.81-6.93 5.061-12.607 11.36-17.824 18.11" transform="translate(68.494 167.819)"/>
                            <path fill="#DDB50C" d="M51.966 44.596l1.595.261c.408.782.296 1.625.283 2.454-.047 3.201.396 6.344 1.16 9.442 2.853 11.567 9.958 19.845 19.979 25.907 8.187 4.953 15.135 11.126 19.19 20.054.44.972.988 1.907.437 3.014l-1.185.462c-.705-.37-1.154-.948-1.47-1.673-3.835-8.803-10.63-14.776-18.65-19.626-11.242-6.8-18.786-16.346-21.537-29.388-.693-3.29-.781-6.618-.715-9.96l.913-.947" transform="translate(68.494 167.819)"/>
                            <path fill="#F4C91B" d="M117.142 128.894c-10.815-4.508-18.268-12.286-22.531-23.166.55-1.107.003-2.042-.439-3.014-4.054-8.928-11.002-15.1-19.19-20.054-10.02-6.062-17.125-14.34-19.978-25.907-.764-3.098-1.208-6.24-1.16-9.442.013-.83.125-1.672-.283-2.454l9.358-4.209c1.963-.781 3.983-1.448 5.87-2.38 1.578-.776 1.99-.261 2.336 1.256 1.665 7.314 3.93 14.433 7.334 21.149.959 1.891 2.073 3.689 3.326 5.408 3.462 4.75 7.789 6.867 13.788 5.323 3.494-.9 7.12-1.433 10.804-.867 3.003.46 5.358 1.865 7.267 4.212 5.25 6.456 8.598 13.84 10.841 21.784.223.789.527 1.555.793 2.332-3.577 8.756-6.356 17.744-7.821 27.108-.151.966-.212 1.947-.315 2.92" transform="translate(68.494 167.819)"/>
                            <path fill="#F4C91B" d="M134.633 81.388c-2.846 4.596-5.475 9.312-7.932 14.127-1.549-3.84-2.665-7.844-4.526-11.573-1.906-3.819-4.228-7.354-6.864-10.69-3.32-4.203-7.842-5.519-12.956-5.092-2.94.246-5.907.557-8.768 1.233-3.896.922-6.633-.702-8.998-3.43-3.225-3.722-5.204-8.158-6.972-12.68-1.905-4.868-3.312-9.897-4.594-14.964-.324-1.28-.04-1.883 1.223-2.348 2.412-.89 4.798-1.875 7.108-3 1.494-.727 2.11-.628 2.618 1.136 1.362 4.726 3.11 9.326 5.432 13.683.393.735.803 1.46 1.237 2.172 4.854 7.969 8.218 9.453 17.311 7.765 3.279-.609 6.561-1.156 9.925-.405 2.557.572 4.6 1.833 6.256 3.836 4.955 5.992 8.272 12.827 10.5 20.23" transform="translate(68.494 167.819)"/>
                            <path fill="#FFF" d="M83.151 32.546c1.608 4.94 3.932 10.886 6.254 15.244.39.735.802 1.461 1.235 2.172 4.855 7.969 8.219 9.452 17.312 7.765 3.278-.608 6.561-1.157 9.925-.405 2.557.572 4.6 1.834 6.256 3.836 4.955 5.992 8.272 12.827 10.5 20.23l1.713-2.442c-2.369-6.324-5.266-12.332-9.314-17.82-3.987-5.405-9.212-7.05-15.548-6.204-2.626.351-5.257.7-7.858 1.191-3.08.582-5.48-.54-7.566-2.67-3.026-3.089-4.92-6.884-6.625-10.776-1.334-3.045-3.977-11.684-3.977-11.684L70.467 37.1c1.096 7.496 4.588 16.858 7.992 23.572.958 1.892 2.073 3.69 3.326 5.41 3.462 4.748 7.789 6.866 13.788 5.322 3.494-.9 7.12-1.434 10.805-.868 3.003.462 5.357 1.865 7.266 4.214 5.249 6.455 8.597 13.84 10.84 21.783.224.79.528 1.555.794 2.332.474-1.116.95-2.233 1.423-3.35-1.55-3.84-2.665-7.844-4.526-11.573-1.906-3.82-4.228-7.354-6.864-10.69-3.32-4.203-7.842-5.519-12.956-5.092-2.939.246-5.907.557-8.769 1.233-3.895.922-6.632-.702-8.997-3.43-3.225-3.721-5.204-8.158-6.972-12.68-1.905-4.868-3.432-11.31-4.679-16.385l10.213-4.352z" transform="translate(68.494 167.819)"/>
                        </g>
                    </g>
                </g>
                <path fill="#1C1C17" d="M158.832 77.411c1.607 2.642 3.21 5.289 4.27 8.212.211.58.68 1.381-.124 1.762-.604.286-1.08-.385-1.447-.855-.464-.593-.844-1.252-1.303-1.85-1.26-1.637-2.818-2.791-5.003-2.48-2.346.332-3.652 1.956-4.502 4.013-.255.619-.413 1.278-.615 1.918-2.497-.33-4.885-1.028-7.149-2.135-6.741-3.296-10.28-10.482-8.694-17.81.82-3.793 3.026-6.592 6.587-8.171 1.132-.502 1.474-1.129 1.598-2.336.654-6.37 2.02-12.57 5.177-18.229 4.168-7.474 10.652-10.744 18.026-9.172-.064.878.466 1.325 1.136 1.785 4.873 3.339 5.981 7.408 3.52 12.709-.36.777-1.228 1.716-.076 2.353 1.235.685 1.73-.513 2.146-1.365 2.076-4.248 2.046-8.43-.524-12.494 2.008-.991 4.125-1.546 6.367-1.313 5.038.523 7.889 3.583 8.777 9.432.567 3.735.38 7.401-1.338 10.866l-5.46 4.194c-5.132 3.546-10.281 7.063-15.93 9.765-.044-1.808.333-3.64-.206-5.419-.25-.825-.377-2.015-1.676-1.656-1.104.304-.763 1.201-.585 2.065.996 4.833-1.403 9.283-5.985 11.233-2.937 1.249-5.878 1.288-8.813-.002-.772-.34-1.646-.859-2.156.2-.58 1.202.53 1.538 1.306 1.954.663.355 1.358.649 2.039.97.295.597.574 1.204.89 1.791 1.108 2.07 2.603 2.852 4.928 1.751 1.53-.724 3.207-1.134 4.819-1.686" transform="translate(-15 -112) translate(5.273 96) rotate(8 160.588 59.012)"/>
                <path fill="#8B633C" d="M31.429 75.366c-1.993-3.004-4.942-4.222-8.394-4.62-2.735-.316-5.386.669-8.106.382-.038-.775-.038-1.535.667-2.069l5.74-.708c2.49.097 4.916.404 7.202 1.546 1.133.567 1.998 1.615 3.32 1.822l.178.115c-.064-.035-.127-.07-.19-.103.061-.993-.44-1.816-.808-2.68-.018-3.015-2.613-2.579-4.366-3.219-2.419-.882-5.106.154-7.505-.981l.41-1.345c3.205-.974 6.34-.214 9.403.59 1.655.433 2.065.022 1.95-1.502-.028-.372.072-.754.114-1.131.541-.325 1.121-.353 1.723-.228.79 1.43.347 2.983.406 4.476.073 1.847.384 3.624 1.134 5.304.325.728.913 1.23 1.794 1.15.82-.074 1.09-.704 1.337-1.369.467-1.257.515-2.515.078-3.787-.235-.682-.35-1.35.356-1.836.641-.44 1.13-.021 1.64.328 2.686 1.84 4.658 4.325 6.376 7.038.44.695.663 1.427-.198 1.978-.94.601-1.382-.148-1.807-.774-1.009-1.483-1.914-3.048-3.51-4.35-.793 2.664-1.585 5.119-4.822 5.35-.876.064-.963.931-1.018 1.77-.15 2.327-1.316 3.335-3.623 3.475-2.549.155-4.945-.668-7.412-1.041-.97-.147-1.949-.375-2.92-.355-1.563.032-2.086-.63-1.736-2.1 1.57-.293 3.106-.213 4.697.083 2.357.438 4.665 1.269 7.117 1.106 1.19-.079 1.99-.423 1.206-1.816l-.464-.513.03.014z" transform="translate(-15 -112) translate(5.273 96) rotate(8 30.597 70.587)"/>
                <path fill="#8B633C" d="M302.721 21.526c.018 1.263-1.002 1.526-1.864 1.983-4.892 2.59-8.435 6.115-8.309 12.144.03 1.929 1.023 2.088 2.266 1.04 1.195-1.01 2.202-2.25 3.255-3.42 1.502-1.673 2.82-3.54 4.972-4.49 1.258.721 1.745 1.405.2 2.458-2.286 1.56-3.626 4.05-5.57 5.964-3.012 2.963-3.765 3.067-7.102.518-.487-.373-1.074-.49-1.484-.24-2.711 1.65-4.893.435-7.114-1.468-.615 2.085-.387 3.944-.222 5.784.068.76.087 1.404-.81 1.569-.965.177-1.446-.412-1.513-1.266-.253-3.263-.23-6.51.776-9.678.196-.614.46-1.186 1.165-1.224.711-.038 1.068.494 1.255 1.112.366 1.204 1.043 2.185 2.062 2.915.717.512 1.54.771 2.342.317.813-.46.64-1.343.506-2.058-.466-2.48-2.043-4.36-3.588-6.224-.602-.727-1.163-1.396-.994-2.407.372-.411.843-.586 1.39-.576 1.989 2.224 1.912 2.155 3.808.049 1.944-2.16 3.827-4.441 6.642-5.587l.937.658c.143 1.09-.618 1.566-1.354 2.13-2.095 1.603-3.98 3.408-5.477 5.618-.916 1.353-.913 2.473.372 3.528l.854 3.28c.873-4.438 2.897-7.525 5.682-10.156l5.427-3.113c.627.049 1.215.168 1.49.84" transform="translate(-15 -112) translate(5.273 96) rotate(8 291.75 31.07)"/>
                <path fill="#8B633C" d="M184.495 102.745c2.79-.495 4.412-2.476 5.893-4.637 1.272 1.85 2.478 3.737 3.42 5.78-5.468 2.82-11.139 3.127-17.37 1.286 2.522-.96 5.003-.766 7.118-1.849.334-.185.378-.174.939-.58" transform="translate(-15 -112) translate(5.273 96) rotate(8 185.123 102.219)"/>
                <path fill="#313131" stroke="#313131" stroke-width=".543" d="M175.328 35.085c1.98 4.382 1.428 8.528-1.22 12.445-.53.785-1.188 1.903-2.315 1.054-1.051-.793-.062-1.6.404-2.32 3.174-4.908 2.643-9.091-1.718-13.076-.6-.548-1.062-1.065-.877-1.925 1.22-.97 2.063-.089 2.954.591 1.153.881 1.884 2.123 2.772 3.231" transform="translate(-15 -112) translate(5.273 96)"/>
                <path fill="#8B633C" d="M154.977 94.07l-.009-1.358c.571-.48 1.136-.966 1.715-1.437 1.483-1.206 1.918-1.02 2.32.986l-2.306 2.271c-.628.05-1.21-.074-1.72-.463" transform="translate(-15 -112) translate(5.273 96) rotate(8 156.986 92.533)"/>
                <path fill="#8B633C" d="M90.997 100.894c.835-.075 1.227.286 1.605.663 1.233 1.228 2.46 2.46 3.692 3.688.59.588.988 1.205.205 1.923-.65.596-1.228.355-1.77-.203-1.317-1.355-2.678-2.67-3.95-4.067-.72-.793-.824-1.608.218-2.004" transform="translate(-15 -112) translate(5.273 96) rotate(8 93.58 104.2)"/>
                <path fill="#8B633C" d="M258.266 74.98c.513-.05.864.19 1.106.622.264.471.11.914-.21 1.249-1.463 1.526-2.943 3.037-4.444 4.526-.42.418-.949.435-1.444.067-.404-.301-.524-.724-.459-1.204.117-.859 4.635-5.212 5.45-5.26" transform="translate(-15 -112) translate(5.273 96) rotate(8 256.152 78.34)"/>
                <path fill="#4E280B" d="M178.474 89.353c-2.982-.096-3.47.501-2.427 2.428.777 1.434 2.079 1.598 3.528 1.3 1.533-.317 3.074-.765 3.428-2.512.266-1.313-.748-1.685-1.867-1.586-1.052.093-2.095.288-2.662.37m.208 4.845c-2.073-.197-3.987-.8-5.529-2.288-.826-.796-1.208-1.777-.776-2.878.466-1.192 1.535-1.452 2.635-1.203 2.085.47 4.13.688 6.26.204.983-.224 1.937.17 2.484 1.178.593 1.092.281 2.07-.42 2.94-1.182 1.467-2.894 1.81-4.654 2.047" transform="translate(-15 -112) translate(5.273 96) rotate(8 178.133 90.97)"/>
                <path fill="#8B633C" d="M151.303 84.81c1.493.049 2.929.483 4.251 1.288 1.435.873 1.338 1.871.205 2.929-1.382 1.288-3.826 1.07-5.077-.452-.56-.681-.623-1.713-1.611-2.12-.333-.136-.373-.67-.13-1.014.584-.827 1.497-.548 2.362-.632" transform="translate(-15 -112) translate(5.273 96) rotate(8 152.703 87.34)"/>
                <path fill="#B3906B" d="M176.725 95.505c.617.061 1.404.055 1.399.793-.005.813-.817.96-1.48.916-.623-.043-1.235-.457-1.243-1.072-.013-.933.844-.518 1.324-.637" transform="translate(-15 -112) translate(5.273 96) rotate(8 176.762 96.363)"/>
                <path fill="#D4B28E" d="M176.311 96.662c-.622-.043-1.233-.456-1.242-1.072-.013-.932.844-.517 1.324-.636.616.06 1.404.055 1.4.792-.007.814-.818.962-1.482.916zm-4.254-5.44c-.826-.797-1.207-1.778-.776-2.88.466-1.19 1.534-1.451 2.635-1.203 2.085.47 4.131.69 6.26.204.983-.224 1.937.17 2.484 1.178.593 1.093.281 2.07-.42 2.94-1.183 1.468-2.894 1.81-4.654 2.047-2.073-.197-3.986-.799-5.529-2.287zm-2.653-9.426c-.102-.628.011-1.336.815-1.321.83.015.998.822 1.192 1.463.18.597-.04 1.03-.72 1.179-.806-.055-1.172-.61-1.287-1.321zm11.201-6.83c.136.014.244.055.341.107.424.226.532.75.677 1.16.061.46-.055.8-.352.936-.094.043-.204.066-.334.065-.717-.007-1.073-.513-1.107-1.19-.027-.534.009-1.163.775-1.079zM154.296 94.95c.571-.479 1.136-.966 1.714-1.436 1.483-1.207 1.918-1.02 2.32.985l-4.034.451zm-4.967-3.49c-.56-.681-.623-1.713-1.612-2.119-.332-.136-.372-.672-.13-1.014.585-.828 1.497-.55 2.362-.632 1.493.05 2.93.483 4.251 1.287 1.435.874 1.338 1.873.206 2.93-1.383 1.289-3.827 1.07-5.077-.452zm49.401 17.702l-4.52-7.047c-5.469 2.82-11.139 3.128-17.371 1.288 2.523-.96 5.003-.766 7.119-1.848v-.001c.334-.186.633-.342.837-.48l.16-.1c2.792-.496 4.354-2.477 5.835-4.638.823-3.92.782-7.836-.548-11.618-2.09-5.94-5.206-11.382-8.522-16.71-.124-.18-.247-.358-.372-.536l-1.516-3.018c-1.243.32-1.925 1.375-2.817 2.154-6.733 4.924-14.102 8.69-21.75 11.95-.618.265-1.203.61-1.805.917 1.606 2.642 3.21 5.288 4.27 8.211.21.581.68 1.382-.125 1.762-.605.286-1.08-.384-1.447-.854-.464-.594-.844-1.252-1.303-1.85-1.261-1.637-2.818-2.791-5.004-2.482-2.345.334-3.652 1.957-4.501 4.014-.256.619-.413 1.278-.615 1.918.662 1.875.717 4.066 2.724 5.242 2.093 1.77 4.4 1.872 6.846.872l-.009-1.358 4.034-.45-2.305 2.27c.247.547.471 1.106.747 1.639 3.741 7.215 7.488 14.427 11.234 21.64.13.054.265.098.403.132 1.725 3.951 4.576 6.972 8.107 9.298 5.967 3.931 12.18 3.893 18.311.44 3.517-1.981 5.34-5.08 5.678-9.262.325-4.037-.49-7.772-1.775-11.495z" transform="translate(-15 -112) translate(5.273 96) rotate(8 172.655 98.462)"/>
                <path fill="#313131" stroke="#313131" stroke-width=".543" d="M156.733 73.343l-.948.376c-.379-.093-.708-.036-.942.31l-.024.007-.727.109c-2.739.615-5.415.174-8.079-.476-.63-.413-1.277-.8-1.884-1.244-.71-.52-1.763-1.007-1.021-2.117.652-.977 1.445-.342 2.163.102 2.726 1.686 5.644 2.057 8.727 1.228 4.809-1.292 7.803-5.365 7.49-10.29-.056-.88-.27-1.816.866-1.964 1.336-.174 1.297 1.022 1.429 1.874.286 1.837-.341 3.598-.55 5.395-1.508 2.87-3.773 5.005-6.5 6.69" transform="translate(-15 -112) translate(5.273 96)"/>
                <path fill="#FFF" d="M178.906 60.813c.183-.318.33-.64.43-.967-.1.327-.247.649-.43.967m5.732-7.742l-5.462 4.194c-5.13 3.546-10.28 7.063-15.93 9.766-1.094 3.051-3.039 5.481-5.505 7.53l-.887.504c-.195.352-.497.487-.89.438l-.022.01c-.185.239-.416.324-.705.209-2.626.99-5.338.926-8.066.653.295.597.574 1.204.889 1.792 1.11 2.07 2.603 2.851 4.929 1.75 1.53-.723 3.207-1.134 4.82-1.685.602-.307 1.187-.652 1.806-.916 7.647-3.262 15.016-7.026 21.75-11.95.891-.78 1.573-1.834 2.816-2.156.159-3.379.734-6.74.457-10.139" transform="translate(-15 -112) translate(5.273 96) rotate(8 165.942 66.744)"/>
                <path fill="#C7CCF1" d="M154.87 74.093c.182-.376.5-.478.889-.438-.196.352-.498.487-.89.438" transform="translate(-15 -112) translate(5.273 96) rotate(8 155.314 73.875)"/>
                <path fill="#C7CCF1" d="M154.099 74.194l.705-.209c-.184.24-.415.324-.705.21" transform="translate(-15 -112) translate(5.273 96) rotate(8 154.452 74.115)"/>
                <path fill="#D4B28E" d="M95.406 105.957c-.65.596-1.228.354-1.77-.203-1.317-1.356-2.678-2.67-3.95-4.067-.72-.793-.824-1.607.218-2.005.836-.075 1.227.287 1.606.665 1.232 1.227 2.46 2.46 3.691 3.688.59.587.989 1.205.205 1.922M26.246 83.24l.025.007c-1.993-3.003-4.942-4.222-8.393-4.62-2.736-.315-5.387.67-8.107.382-.788.17-1.355.65-1.805 1.295-1.715 1.278-2.062 3.102-1.946 5.066.173 2.915 1.682 5.146 3.806 7.005 2.8 2.45 6.141 3.9 9.666 4.897 8.759 2.478 17.371 5.407 26.017 8.24 7.559 2.476 15.122 4.944 22.682 7.416.543.242 1.072.529 1.632.72 25.752 8.775 51.502 17.555 77.272 26.278 1.65.559 2.615 1.414 3.286 3.05 1.522 3.705 3.294 7.307 4.964 10.952.4 1.092.457 2.373 1.665 3.02l3.57-7.165c2.506-7.461 3.182-15.008.185-22.44-2.967-7.359-6.722-14.363-10.458-21.363l-.096-.756c-.756-1.1-1.87-1.377-3.115-1.351-.284-.423-.748-.46-1.186-.587-25.41-7.382-50.808-14.807-76.233-22.138-6.11-1.763-12.15-3.791-18.375-5.149-3.204-.6-5.501-2.491-7.433-5.02-.96-1.257-2.255-2.225-3.594-3.097-4.666-3.041-8.617-2.659-12.666 1.234.79 1.43.349 2.984.407 4.478.073 1.846.383 3.622 1.134 5.302.325.728.912 1.23 1.794 1.15.82-.073 1.09-.704 1.336-1.368.468-1.258.516-2.516.078-3.787-.235-.682-.35-1.351.356-1.836.642-.44 1.13-.021 1.64.327 2.687 1.84 4.658 4.325 6.376 7.039.44.695.664 1.426-.198 1.978-.94.6-1.382-.148-1.807-.774-1.008-1.484-1.914-3.049-3.51-4.35-.792 2.664-1.584 5.118-4.821 5.35-.876.063-.964.93-1.018 1.77-.15 2.327-1.317 3.335-3.623 3.475-2.55.154-4.945-.669-7.412-1.042-.97-.146-1.949-.374-2.92-.354-1.564.032-2.086-.63-1.734-2.099v-.002c1.569-.291 3.105-.213 4.695.084 2.356.437 4.664 1.268 7.116 1.106 1.19-.079 1.99-.423 1.206-1.816l-.458-.507" transform="translate(-15 -112) translate(5.273 96) rotate(8 84.374 111.406)"/>
                <path fill="#D4B28E" d="M30.243 63.43c1.656.433 2.065.022 1.95-1.503-.027-.372.073-.753.114-1.13-2.68-1.025-5.398-1.98-8.305-1.948-2.808.032-3.877 1.473-3.16 3.991 3.203-.974 6.339-.213 9.4.59" transform="translate(-15 -112) translate(5.273 96) rotate(8 26.466 61.22)"/>
                <path fill="#FD7402" d="M31.687 71.883l-.012-.004v.015l.012-.011z" transform="translate(-15 -112) translate(5.273 96) rotate(8 31.681 71.887)"/>
                <path fill="#D4B28E" d="M28.925 68.963c1.13.565 1.993 1.607 3.308 1.818.056-.985-.442-1.805-.808-2.664-.017-3.015-2.613-2.58-4.366-3.219-2.419-.883-5.106.154-7.504-.982-2.15.589-3.534 1.828-3.572 4.209l5.741-.708c2.49.097 4.916.404 7.2 1.546" transform="translate(-15 -112) translate(5.273 96) rotate(8 24.11 67.349)"/>
                <path fill="#FE8D3B" d="M31.153 75.96l-.465-.513.465.513" transform="translate(-15 -112) translate(5.273 96) rotate(8 30.92 75.704)"/>
                <path fill="#FD7402" d="M31.667 71.906l.19.104-.178-.115-.012.011" transform="translate(-15 -112) translate(5.273 96) rotate(8 31.762 71.952)"/>
                <path fill="#D4B28E" d="M259.248 76.917c-1.462 1.527-2.942 3.037-4.443 4.527-.42.418-.949.435-1.444.067-.405-.302-.525-.725-.459-1.204.117-.859 4.635-5.212 5.45-5.26.513-.05.864.19 1.106.622.265.47.11.914-.21 1.248m36.955-52.562c1.258.722 1.745 1.405.2 2.46-2.286 1.558-3.626 4.05-5.572 5.962-3.01 2.963-3.763 3.068-7.1.518-.488-.373-1.074-.49-1.484-.24-2.712 1.65-4.894.435-7.114-1.467-.615 2.085-.387 3.944-.222 5.783.068.76.087 1.405-.81 1.57-.965.177-1.447-.412-1.513-1.267-.253-3.262-.23-6.51.776-9.677.195-.614.46-1.187 1.164-1.224.712-.038 1.068.494 1.256 1.112.365 1.204 1.043 2.184 2.062 2.914.716.513 1.538.772 2.341.317.813-.46.64-1.343.506-2.058-.465-2.48-2.042-4.359-3.587-6.224-.603-.727-1.164-1.396-.994-2.407-5.613-.2-8.658 1.531-10.442 6.064-.52 1.325-1.225 2.775-1.121 4.11.388 4.995-1.983 8.766-4.927 12.365-.355.392-.748.756-1.061 1.179-12.443 16.844-24.928 33.658-37.284 50.565-3.573 4.888-7.347 9.655-10.324 14.96-.983 1.213-2.314 2.23-2.25 4.027 3.753 1.968 6.554 5.047 9.342 8.112 4.73 5.2 8.943 10.813 12.928 16.598.81-.398 1.094-1.239 1.55-1.915 8.957-13.289 17.903-26.588 26.836-39.893 4.399-6.551 8.769-13.121 13.152-19.683.372-.472.775-.923 1.114-1.418 8.7-12.7 17.224-25.52 26.33-37.937 1.942-2.647 3.567-5.502 4.253-8.734.837-3.94.785-7.732-2.994-10.393-1.518-1.476-3.51-1.064-5.33-1.336.017 1.264-1.004 1.527-1.865 1.983-4.892 2.59-8.436 6.116-8.309 12.145.03 1.928 1.023 2.088 2.266 1.039 1.195-1.01 2.201-2.248 3.254-3.42 1.502-1.672 2.822-3.539 4.973-4.49" transform="translate(-15 -112) translate(5.273 96) rotate(8 256.673 77.753)"/>
                <path fill="#D4B28E" d="M289.541 24.12c1.944-2.16 3.827-4.441 6.643-5.587-1.154-2.402-2.44-2.853-4.566-1.446-2.632 1.743-4.24 4.389-5.885 6.984 1.989 2.224 1.912 2.155 3.808.049" transform="translate(-15 -112) translate(5.273 96) rotate(8 290.958 21.006)"/>
                <path fill="#D4B28E" d="M289.87 31.135l.853 3.28c.873-4.437 2.898-7.525 5.681-10.156l5.428-3.113c-1.45-2.073-3.497-1.59-5.503-1.286.143 1.09-.619 1.565-1.355 2.129-2.094 1.603-3.98 3.409-5.476 5.618-.916 1.354-.914 2.474.371 3.528" transform="translate(-15 -112) translate(5.273 96) rotate(8 295.342 27)"/>
                <path fill="#F3ECF2" d="M178.447 89.513c.566-.08 1.61-.277 2.662-.37 1.119-.098 2.132.274 1.866 1.587-.354 1.747-1.895 2.195-3.427 2.511-1.45.299-2.752.135-3.529-1.299-1.043-1.927-.555-2.524 2.428-2.429" transform="translate(-15 -112) translate(5.273 96) rotate(8 179.269 91.247)"/>
                <path fill="#4875E9" d="M207.09 217.985c1.495-.727 4.405-1.878 5.944-2.51 8.393-3.448 16.733-7.028 25.109-10.52 1.243-.518 2.274-1.125 2.575-2.54-.554-6.026-2.382-11.793-3.585-17.687-.827-4.054-2.568-7.886-2.89-12.06-1.349-4.076-2.659-8.167-4.063-12.225-.707-2.046-1.022-4.25-2.324-6.07-.91-2.567-1.782-5.148-2.74-7.697-2.105-5.605-4.886-10.912-7.294-16.384-3.985-5.786-8.198-11.398-12.928-16.599-2.788-3.064-5.589-6.143-9.341-8.11-.861.05-1.183.732-1.672 1.299-1.592 1.84-2.665 4.102-4.601 5.656 1.285 3.723 2.099 7.458 1.774 11.495-.337 4.18-2.16 7.281-5.678 9.262-6.13 3.453-12.344 3.491-18.31-.44-3.531-2.326-6.383-5.347-8.109-9.298-.137-.034-.272-.079-.402-.133-.503.628-1.065.293-1.652.141-3.877-1.005-7.763-1.979-11.64-2.983-.653-.169-1.294-.577-1.842.178l.096.757c3.736 7 7.49 14.004 10.458 21.363 2.996 7.431 2.321 14.978-.185 22.44.16.05.31.113.457.176-.148-.063-.296-.125-.457-.177l-3.57 7.166c.236 2.11 1.638 3.73 2.362 5.631.235.62.531 1.215.833 1.809l.016.032c.229.45.459.898.669 1.354l11.753 23.818.538-.066-.377.392.576 1.168c.277.4.463.87.681 1.313 1.322 2.695 2.64 5.394 3.96 8.091l.756 1.533h-.006c1.759 3.591 3.52 7.18 5.274 10.774.196.402.3.85.448 1.275l1.594.262 9.36-4.21c.044-.274.097-.545.15-.816-.053.27-.106.542-.15.816 1.962-.781 3.98-1.447 5.87-2.379 1.576-.777 4.192-1.832 5.456-2.298 2.412-.889 4.798-1.874 7.107-2.999z" transform="translate(-15 -112) translate(5.273 96) rotate(8 192.07 167.726)"/>
                <path fill="#4E280B" d="M187.48 72.69c-1.448-.116-2.876-.426-4.349-.316-2.93.221-4.463 2.189-3.84 5.091.282 1.317.685 2.607 1.03 3.91.434 1.64.01 2.488-1.511 3.054-.265.098-.553.268-.776.014-.318-.362-.026-.7.249-.823 1.464-.66 1.088-1.69.666-2.8-.522-1.376-.758-2.83-.808-4.29-.104-2.99 1.811-4.99 4.807-5.167 1.466-.086 2.909.072 4.35.302l.182 1.025z" transform="translate(-15 -112) translate(5.273 96) rotate(-27 182.688 77.958)"/>
                <path fill="#4E280B" d="M171.173 76.259c-.786-.075-1.527.027-2.24.332-.253.108-.561.244-.7-.137-.107-.295.15-.428.368-.52 1.7-.72 3.406-.6 5.108-.01.22.076.473.223.37.518-.138.394-.442.23-.696.134-.72-.27-1.46-.39-2.21-.317" transform="translate(-15 -112) translate(5.273 96) rotate(-24 171.155 76.071)"/>
                <path fill="#1C1C17" d="M184.655 77.58c.116.867-.207 1.446-.987 1.438-1.03-.01-1.541-.737-1.59-1.71-.039-.767.012-1.672 1.114-1.55 1.042.115 1.206 1.097 1.463 1.822" transform="translate(-15 -112) translate(5.273 96) rotate(8 183.373 77.382)"/>
                <path fill="#1C1C17" d="M172.845 83.253c-1.002-.068-1.456-.758-1.6-1.642-.127-.78.015-1.66 1.014-1.64 1.031.018 1.24 1.02 1.48 1.817.224.743-.048 1.28-.894 1.465" transform="translate(-15 -112) translate(5.273 96) rotate(8 172.51 81.612)"/>
                <path fill="#F2D76A" fill-rule="nonzero" d="M144.669 108.595c.34-.014.623-.204.61-.437l-.114-1.357c1.545-.204 2.494-1.357 2.494-2.568 0-1.721-1.46-2.51-2.72-3.02-1.036-.394-1.503-.817-1.503-1.415 0-.496.382-.875 1.105-.875.695 0 1.22.35 1.772.7.17.102.368 0 .468-.16l.524-.774c.085-.13.057-.35-.085-.423-.227-.175-1.006-.7-2.055-.846l.113-1.386c.014-.233-.27-.452-.61-.437-.34.014-.623.204-.609.437l.114 1.372c-1.758.175-2.48 1.415-2.48 2.494 0 1.561 1.218 2.364 2.437 2.86 1.077.423 1.616.89 1.616 1.546 0 .554-.482.978-1.148.978-.836 0-1.403-.394-1.928-.803-.142-.102-.34-.102-.453.088l-.496.846c-.114.19-.057.277.07.38.355.276 1.063.89 2.367 1.02l-.099 1.343c-.014.233.27.452.61.437z" transform="translate(-15 -112) translate(5.273 96) rotate(-13 144.66 102.096)"/>
                <path fill="#F2D76A" fill-rule="nonzero" d="M202.891 99.001c.397-.015.728-.22.711-.471l-.132-1.461c1.802-.22 2.91-1.461 2.91-2.765 0-1.854-1.703-2.703-3.175-3.253-1.207-.424-1.752-.88-1.752-1.523 0-.535.446-.943 1.29-.943.81 0 1.421.377 2.066.754.199.11.43 0 .546-.173l.612-.833c.1-.14.066-.377-.1-.455-.264-.189-1.173-.754-2.397-.911l.132-1.493c.017-.251-.314-.487-.71-.471-.398.015-.728.22-.712.471l.132 1.477c-2.05.188-2.893 1.524-2.893 2.686 0 1.682 1.422 2.546 2.844 3.08 1.257.455 1.885.958 1.885 1.665 0 .597-.562 1.053-1.34 1.053-.975 0-1.637-.424-2.248-.864-.166-.11-.397-.11-.53.094l-.578.911c-.133.205-.067.299.082.409.414.298 1.24.958 2.762 1.1l-.116 1.445c-.016.251.314.487.711.471z" transform="translate(-15 -112) translate(5.273 96) rotate(-13 202.88 92.002)"/>
                <path fill="#F2D76A" fill-rule="nonzero" d="M190.737 74.576c.227-.01.416-.126.406-.27l-.075-.835c1.03-.125 1.663-.835 1.663-1.58 0-1.06-.974-1.544-1.815-1.858-.69-.243-1.001-.503-1.001-.871 0-.305.255-.539.737-.539.463 0 .812.216 1.18.431.114.063.247 0 .313-.098l.35-.476c.056-.081.037-.216-.057-.26-.152-.108-.671-.432-1.37-.521l.075-.853c.01-.144-.18-.279-.406-.27-.227.01-.416.126-.407.27l.076.844c-1.172.107-1.654.87-1.654 1.535 0 .96.813 1.454 1.626 1.76.718.26 1.077.547 1.077.951 0 .341-.321.602-.765.602-.558 0-.936-.243-1.286-.494-.094-.063-.226-.063-.302.054l-.33.52c-.076.117-.038.171.047.234.236.17.708.548 1.578.628l-.067.826c-.009.144.18.279.407.27z" transform="translate(-15 -112) translate(5.273 96) rotate(-13 190.73 70.576)"/>
            </g>
        </g>
    </g>
</svg>
